<?xml version="1.0" standalone="no"?>
<!DOCTYPE svg PUBLIC "-//W3C//DTD SVG 20010904//EN"
 "http://www.w3.org/TR/2001/REC-SVG-20010904/DTD/svg10.dtd">
<svg version="1.0" xmlns="http://www.w3.org/2000/svg"
 width="1115.000000pt" height="1468.000000pt" viewBox="0 0 1115.000000 1468.000000"
 preserveAspectRatio="xMidYMid meet">

<g transform="translate(0.000000,1468.000000) scale(0.100000,-0.100000)"
fill="#000000" stroke="none">
<path d="M6035 14439 c-27 -5 -92 -16 -143 -25 -76 -14 -119 -15 -230 -8 -213
13 -339 10 -412 -9 -36 -9 -135 -21 -221 -26 -96 -6 -170 -15 -194 -25 -82
-32 -217 -66 -264 -66 -89 0 -290 -48 -377 -91 -45 -21 -86 -39 -91 -39 -6 0
-18 -10 -26 -22 -9 -13 -39 -48 -67 -78 -49 -53 -54 -55 -123 -66 -118 -19
-152 -37 -236 -122 -53 -54 -100 -91 -153 -120 -51 -26 -102 -66 -148 -112
-39 -38 -75 -70 -80 -70 -5 0 -32 -20 -60 -45 -28 -25 -55 -45 -60 -45 -5 0
-25 -24 -44 -52 -59 -90 -120 -174 -138 -191 -9 -9 -19 -30 -23 -47 -4 -16
-26 -51 -49 -77 -24 -27 -51 -64 -61 -83 -9 -19 -23 -42 -30 -50 -7 -8 -20
-37 -28 -64 -9 -27 -28 -64 -43 -83 -22 -29 -26 -45 -28 -116 -2 -65 -8 -91
-27 -127 -14 -25 -37 -80 -53 -123 -25 -70 -27 -85 -21 -156 5 -56 2 -104 -9
-163 -15 -82 -32 -254 -27 -273 2 -5 4 -50 6 -100 13 -352 17 -412 31 -442 10
-22 12 -48 8 -87 -5 -43 -3 -61 10 -81 22 -34 66 -157 66 -186 0 -13 6 -36 14
-51 8 -15 17 -42 21 -60 3 -18 10 -53 16 -78 5 -25 18 -97 29 -160 11 -63 27
-142 35 -175 7 -33 17 -90 20 -127 7 -65 6 -67 -17 -73 -13 -3 -46 1 -72 10
-100 34 -206 -21 -260 -136 -9 -20 -26 -46 -37 -58 -11 -12 -19 -29 -17 -39 1
-9 -1 -23 -6 -30 -4 -7 -3 -18 2 -25 6 -7 13 -38 17 -69 4 -32 14 -63 21 -69
8 -6 17 -29 21 -51 3 -22 12 -42 19 -45 22 -8 44 5 38 22 -3 8 -10 12 -15 9
-12 -7 -11 3 1 26 5 10 17 51 25 91 9 40 22 81 31 90 23 26 69 18 101 -17 15
-17 43 -39 60 -48 59 -30 71 -73 79 -279 3 -100 7 -198 9 -217 1 -19 -2 -62
-6 -94 -8 -58 5 -137 29 -183 14 -25 25 -109 18 -129 -5 -14 -9 -14 -22 -3
-11 9 -17 10 -23 1 -4 -7 -14 1 -25 23 -11 19 -30 42 -42 50 -13 9 -24 23 -24
33 0 14 -2 15 -9 3 -8 -12 -11 -10 -15 10 -6 29 -36 200 -43 247 -3 17 -9 32
-13 32 -4 0 -2 21 3 46 10 44 10 48 -15 68 -14 11 -35 36 -45 55 -10 19 -28
36 -40 37 -18 3 -21 -3 -27 -56 -5 -40 -3 -67 5 -82 19 -34 28 -97 19 -128 -6
-20 -4 -32 7 -43 8 -8 23 -45 33 -83 14 -57 22 -72 46 -84 43 -22 50 -36 52
-103 2 -34 9 -68 16 -77 8 -8 21 -30 30 -48 9 -18 21 -30 27 -27 13 8 49 -4
49 -16 0 -6 -4 -7 -10 -4 -18 11 -11 -17 8 -31 16 -12 16 -13 0 -19 -17 -7
-14 -35 5 -35 6 0 19 7 29 17 17 16 19 14 22 -19 1 -7 6 -17 11 -21 6 -6 6
-10 -2 -14 -17 -6 -17 -44 0 -40 7 1 13 -12 15 -33 2 -19 8 -39 13 -45 5 -5 9
-15 9 -21 0 -7 5 -25 12 -41 6 -15 13 -59 14 -98 3 -118 19 -148 102 -191 35
-18 52 -33 52 -46 0 -10 7 -35 16 -56 8 -20 15 -39 14 -40 -1 -2 5 -9 13 -15
8 -7 20 -40 27 -75 7 -34 17 -65 21 -68 5 -3 9 -13 9 -23 0 -10 6 -24 14 -30
12 -10 29 -63 30 -96 1 -5 3 -12 6 -15 3 -3 13 -20 23 -38 22 -39 17 -69 -18
-124 -13 -20 -27 -49 -31 -65 -4 -15 -20 -49 -36 -74 -15 -25 -28 -49 -28 -53
0 -4 -22 -35 -48 -70 -27 -35 -59 -85 -72 -112 -24 -48 -30 -57 -82 -117 -15
-18 -28 -36 -28 -40 0 -5 -16 -25 -35 -45 -19 -20 -35 -41 -35 -45 0 -4 -29
-44 -65 -88 -36 -45 -65 -85 -65 -90 0 -20 -102 -144 -123 -151 -12 -3 -38 -7
-57 -7 -19 -1 -44 -8 -54 -16 -11 -8 -28 -15 -38 -15 -10 0 -18 -6 -18 -13 0
-13 -184 -97 -212 -97 -7 0 -24 -7 -36 -16 -13 -9 -58 -34 -100 -56 -42 -22
-86 -48 -97 -58 -11 -10 -29 -20 -40 -24 -11 -3 -33 -17 -48 -30 -16 -14 -35
-22 -46 -19 -11 3 -28 -4 -40 -16 -12 -12 -25 -21 -29 -21 -5 0 -32 -11 -60
-25 -29 -14 -57 -25 -64 -25 -6 0 -21 -8 -32 -19 -30 -27 -107 -67 -144 -75
-17 -4 -36 -14 -43 -22 -6 -8 -22 -14 -35 -14 -12 0 -26 -5 -29 -10 -8 -13
-84 -50 -102 -50 -7 0 -21 -8 -32 -19 -10 -10 -34 -24 -53 -30 -19 -6 -44 -20
-56 -31 -12 -11 -26 -20 -32 -20 -6 0 -18 -4 -28 -8 -23 -12 -99 -47 -142 -67
-19 -9 -57 -29 -85 -45 -27 -16 -59 -30 -69 -30 -11 0 -29 -9 -40 -19 -12 -11
-37 -28 -56 -39 -105 -62 -180 -102 -189 -102 -5 0 -31 -11 -57 -25 -26 -14
-53 -25 -59 -25 -7 0 -18 -7 -25 -15 -16 -19 -68 -45 -90 -45 -10 0 -23 -6
-29 -14 -15 -18 -194 -106 -215 -106 -15 0 -16 -140 -15 -1647 0 -1553 1
-1646 17 -1614 26 54 97 125 117 117 9 -3 26 1 38 9 26 18 86 20 122 3 21 -9
32 -8 61 5 25 12 62 17 134 17 93 0 100 -2 112 -23 26 -45 37 -97 27 -130 -5
-18 -9 -57 -9 -88 0 -31 -4 -80 -10 -109 -7 -39 -6 -69 4 -120 11 -51 12 -86
5 -137 -9 -70 -35 -143 -51 -143 -4 0 -8 -8 -8 -17 -1 -26 -23 -51 -51 -57
-13 -3 -77 -8 -142 -10 -78 -3 -124 -9 -134 -18 -9 -7 -35 -13 -57 -14 -23 0
-45 -2 -51 -4 -29 -8 -64 3 -93 29 l-32 30 1 -362 c1 -199 5 -337 8 -307 11
100 70 146 181 140 111 -5 147 -3 175 10 17 7 33 14 37 14 3 1 10 4 14 8 4 4
18 5 32 1 14 -3 27 -1 32 7 8 13 26 2 82 -52 31 -29 30 -21 29 -238 0 -79 7
-162 18 -225 22 -118 15 -221 -16 -263 -12 -16 -45 -35 -88 -50 -66 -24 -69
-24 -98 -7 -34 21 -99 16 -127 -10 -12 -11 -34 -16 -71 -14 -30 1 -70 -2 -89
-5 -31 -6 -39 -3 -70 28 l-34 36 -1 220 c-1 121 -4 222 -8 226 -4 4 -7 -142
-7 -324 l0 -332 2200 0 c1210 0 2200 3 2200 8 0 4 -14 27 -30 52 -17 25 -39
64 -50 88 -15 33 -24 42 -44 42 -36 0 -55 35 -60 113 -3 38 -11 76 -20 89 -23
32 -20 57 9 70 40 18 79 152 63 221 -5 23 -10 74 -10 112 -1 132 -7 120 75
150 39 15 85 33 101 41 24 12 31 12 38 2 5 -7 18 -28 29 -45 17 -28 27 -33 59
-33 30 0 46 7 74 35 35 34 36 36 36 115 l0 80 44 0 c25 0 46 -5 48 -12 6 -17
28 0 28 21 0 9 6 23 12 30 11 10 10 14 -4 22 -11 6 -18 22 -18 39 0 25 -5 31
-35 39 -19 5 -43 7 -53 4 -12 -3 -32 6 -53 25 -38 33 -73 48 -119 51 -11 0
-24 11 -29 24 -11 27 -73 84 -106 97 -45 17 -59 71 -62 240 -3 134 -7 166 -30
240 -14 47 -34 92 -43 100 -9 9 -20 28 -24 43 -5 21 -2 30 14 39 11 7 20 18
20 25 0 7 17 24 37 38 28 19 50 25 89 25 29 0 65 7 80 15 40 21 58 19 91 -9
15 -12 47 -26 71 -29 44 -5 102 10 102 27 0 13 51 66 63 66 19 0 39 -33 44
-73 4 -29 18 -56 45 -88 l38 -47 -4 -158 c-2 -88 1 -211 6 -274 12 -157 3
-235 -31 -270 -35 -35 -83 -132 -72 -143 5 -5 6 -36 4 -69 -6 -56 9 -178 27
-223 4 -11 13 -33 19 -48 6 -15 11 -36 11 -47 0 -17 45 -63 70 -72 8 -2 6 -22
-6 -63 -26 -94 -27 -114 -14 -155 12 -35 11 -44 -9 -90 -24 -56 -26 -49 24
-116 7 -9 2 -21 -17 -41 -26 -27 -27 -31 -21 -105 6 -80 -9 -141 -44 -180 -21
-23 -97 -24 -138 -2 -48 26 -95 28 -119 5 -12 -11 -37 -24 -56 -29 -25 -7 93
-10 396 -11 l431 -1 -2 45 c-1 33 -8 52 -27 72 -26 29 -44 89 -28 95 17 6 26
156 18 325 -3 78 -2 83 25 111 21 22 30 44 36 85 4 30 16 67 27 82 25 36 26
39 61 110 33 65 47 123 44 169 -2 16 3 49 9 73 11 37 10 52 -4 98 -11 35 -24
56 -37 60 -12 4 -22 22 -29 48 -6 23 -19 60 -30 82 -29 61 -42 112 -36 143 4
15 2 48 -2 73 -7 34 -5 56 4 79 12 28 11 37 -6 75 -11 24 -24 47 -30 50 -13 8
-13 61 0 85 6 11 13 53 16 94 8 85 12 95 44 101 32 6 58 32 65 65 6 26 30 49
80 75 27 14 29 38 10 136 -9 46 -16 116 -16 156 1 40 -3 74 -7 77 -14 8 -4
126 13 152 8 13 15 30 15 39 0 8 9 15 20 15 13 0 20 -7 20 -19 0 -11 19 -38
43 -60 35 -34 49 -41 83 -41 59 0 132 51 150 105 23 66 27 130 14 187 -17 70
-32 92 -91 130 -27 17 -49 34 -49 38 0 15 99 88 160 117 59 28 71 30 124 24
33 -4 62 -13 64 -19 2 -7 30 -33 63 -58 53 -41 58 -47 48 -67 -15 -26 -53
-325 -62 -479 -2 -28 -11 -45 -35 -66 -43 -38 -54 -77 -58 -192 -1 -52 -7
-117 -12 -145 -7 -36 -7 -58 2 -80 7 -16 16 -46 20 -66 3 -21 25 -57 51 -88
25 -29 45 -62 46 -74 0 -12 4 -58 8 -101 7 -60 5 -90 -5 -119 -11 -32 -11 -48
0 -105 10 -45 13 -105 10 -182 -5 -111 -6 -116 -39 -165 -20 -28 -45 -61 -58
-75 -21 -23 -23 -35 -24 -142 -1 -89 -5 -121 -16 -133 -16 -16 -15 -70 2 -101
5 -11 12 -32 16 -47 3 -17 15 -31 30 -37 51 -19 60 -51 56 -197 -2 -90 -7
-143 -17 -162 -15 -29 -22 -220 -9 -241 3 -5 3 -39 -1 -75 -5 -48 -12 -69 -23
-73 -9 -3 -29 -19 -46 -34 l-30 -28 190 0 c165 1 186 2 160 14 -17 7 -36 20
-43 28 -12 15 -65 18 -78 6 -9 -10 -42 3 -48 18 -3 8 4 22 14 32 17 16 19 28
16 93 -3 41 -8 87 -11 101 -8 32 12 42 48 23 37 -19 59 0 61 53 3 48 -8 61
-55 67 -17 3 -34 7 -37 9 -9 10 9 38 28 43 11 3 20 11 20 19 0 8 6 11 15 8 20
-8 20 22 0 33 -12 7 -12 18 3 81 16 65 26 82 63 103 4 2 16 -4 27 -14 19 -18
20 -17 41 11 11 16 26 51 32 78 6 27 17 60 24 74 7 14 16 40 20 59 4 19 15 48
24 65 10 17 23 65 30 106 6 41 14 85 17 97 3 18 -1 24 -21 29 -14 3 -25 10
-25 14 0 17 -52 70 -68 70 -10 0 -34 5 -54 10 l-38 11 5 67 c9 118 20 207 29
220 8 13 -6 93 -26 144 -7 19 -7 47 1 93 8 45 8 71 1 84 -17 33 5 70 55 92 24
11 57 36 72 55 29 39 28 33 23 212 -3 92 -2 104 16 116 19 14 19 15 -2 38 -11
13 -27 43 -34 66 -14 44 -62 92 -92 92 -8 0 -23 9 -33 20 -14 16 -16 29 -10
72 4 29 9 76 11 103 3 28 12 65 20 84 10 21 14 48 11 75 -18 140 -13 208 20
247 7 8 13 23 13 31 0 18 20 28 54 28 25 0 52 27 85 85 13 22 29 44 37 48 8 4
14 21 14 36 0 45 85 141 125 141 9 0 29 13 45 28 39 39 76 62 100 62 11 0 20
5 20 11 0 5 4 8 9 4 5 -3 13 -30 16 -60 4 -31 11 -58 16 -61 5 -3 9 -1 9 5 0
6 9 19 20 29 24 23 36 118 22 177 -6 24 -10 31 -11 18 -1 -22 -25 -32 -33 -15
-1 5 -43 3 -92 -5 -82 -12 -90 -11 -102 5 -8 10 -9 21 -3 26 5 6 9 24 9 42 0
17 7 37 15 44 8 7 15 18 15 25 0 21 64 55 129 71 33 7 114 16 181 20 101 6
127 11 153 29 28 18 32 27 31 64 -1 60 -14 69 -71 48 -27 -9 -77 -17 -111 -17
-85 0 -211 -33 -266 -70 -24 -17 -48 -30 -52 -30 -5 -1 -24 -14 -42 -29 -26
-23 -35 -38 -38 -72 -2 -24 -8 -47 -13 -52 -16 -16 -41 1 -41 28 0 17 -5 25
-18 25 -19 0 -65 -44 -75 -72 -3 -10 -22 -20 -44 -24 -21 -4 -49 -15 -62 -25
-13 -11 -31 -19 -40 -19 -9 0 -29 -9 -46 -20 -16 -11 -36 -20 -43 -20 -7 0
-41 -14 -75 -31 -90 -45 -136 -60 -164 -53 -20 5 -24 12 -20 30 4 25 -1 28
-27 18 -15 -6 -15 -8 1 -20 17 -12 16 -13 -7 -12 -29 2 -80 -28 -80 -47 0 -7
-7 -15 -15 -19 -8 -3 -15 -13 -15 -22 0 -9 -12 -28 -27 -41 -33 -28 -64 -47
-61 -36 8 23 -110 95 -140 85 -16 -5 -72 17 -72 29 0 5 -6 9 -14 9 -8 0 -28
11 -44 25 -17 14 -34 25 -39 25 -6 0 -18 9 -28 20 -10 11 -22 17 -26 14 -5 -3
-23 11 -40 31 -18 20 -34 33 -37 31 -5 -6 -62 62 -62 74 0 4 -13 13 -30 20
-16 7 -32 20 -35 30 -3 10 -35 40 -71 67 -83 62 -275 219 -294 242 -18 20 -96
71 -109 71 -6 0 -14 6 -18 14 -4 7 -45 37 -90 65 -52 34 -96 71 -122 104 -22
29 -52 63 -66 77 -14 13 -25 34 -25 47 0 14 -6 23 -15 23 -8 0 -15 9 -15 20 0
12 -7 20 -17 20 -15 0 -16 2 -3 10 10 7 11 10 2 10 -7 0 -17 11 -22 25 -5 14
-16 28 -25 31 -8 3 -12 10 -9 16 7 11 -24 48 -40 48 -11 0 -42 45 -58 83 -5
11 -17 21 -28 24 -10 3 -29 26 -42 52 -12 25 -28 51 -37 57 -14 11 -18 60 -10
170 2 42 -2 56 -24 86 -15 19 -27 45 -27 57 0 13 -10 31 -22 42 -13 10 -17 18
-10 19 9 0 10 5 2 20 -5 11 -14 29 -20 39 -6 13 -6 21 1 23 5 2 -22 44 -61 93
-38 49 -70 96 -70 103 0 8 -11 36 -25 64 -16 31 -25 67 -25 95 0 32 -5 50 -17
59 -17 13 -17 15 1 29 20 15 18 22 -21 63 -7 7 -13 20 -13 27 0 8 -9 17 -21
20 -15 5 -18 10 -10 18 6 6 11 19 11 29 0 25 36 23 43 -2 3 -13 14 -20 30 -20
27 0 49 21 29 28 -7 2 -12 15 -12 29 0 15 5 23 13 21 6 -3 12 -10 12 -15 0
-23 14 -24 42 -4 25 19 32 20 61 9 17 -7 32 -16 32 -20 0 -4 19 -21 41 -38 31
-22 49 -28 68 -24 17 4 22 3 13 -4 -9 -6 9 -19 62 -46 42 -21 95 -56 118 -77
24 -21 51 -39 60 -39 10 0 18 -4 18 -9 0 -5 10 -11 22 -13 14 -2 24 -12 28
-27 3 -13 12 -25 20 -27 8 -2 52 -16 97 -33 45 -16 84 -27 87 -23 3 3 6 0 6
-7 0 -7 4 -10 9 -6 5 3 15 -1 23 -8 7 -8 21 -13 31 -11 9 1 19 -2 23 -7 3 -5
18 -9 33 -9 31 0 75 -36 67 -55 -2 -7 2 -16 10 -19 8 -3 14 0 14 7 0 7 9 18
21 25 15 10 20 21 16 38 -4 25 18 35 26 12 3 -10 8 -10 23 2 15 11 16 11 6 0
-6 -8 -12 -17 -12 -20 0 -12 76 3 93 18 16 14 20 14 28 2 8 -11 12 -12 16 -2
5 14 39 17 47 4 3 -5 45 -14 93 -21 48 -8 95 -19 103 -26 8 -7 44 -15 78 -19
35 -3 69 -9 75 -13 6 -4 49 -8 94 -10 95 -3 131 -19 131 -59 0 -13 -5 -27 -11
-31 -6 -4 -48 -6 -94 -4 -63 1 -87 -2 -98 -13 -16 -15 -21 -66 -7 -66 5 0 15
-11 22 -25 8 -15 22 -25 36 -25 13 0 24 -8 27 -20 4 -16 14 -20 51 -20 28 0
46 4 46 12 0 7 7 5 18 -4 25 -23 125 -46 153 -36 13 5 80 10 149 12 104 3 131
7 163 24 21 11 56 23 78 27 28 5 46 16 61 36 12 16 29 29 38 29 8 0 22 9 30
20 8 11 20 20 27 20 7 0 13 4 13 8 0 4 25 21 56 36 38 19 54 33 50 42 -3 8 2
18 11 21 10 4 27 18 39 32 18 21 29 25 64 22 32 -2 47 2 66 20 13 12 24 28 24
35 0 7 21 22 46 35 26 12 49 30 51 39 3 10 17 20 33 23 15 4 34 12 42 20 8 8
33 18 56 22 23 4 49 13 57 22 8 8 19 12 24 9 5 -3 11 1 15 9 7 21 43 19 55 -2
10 -17 10 -17 11 0 0 9 4 17 10 17 14 0 90 82 84 91 -6 10 41 23 54 15 5 -3
23 8 41 24 18 17 38 30 45 30 8 0 19 7 26 15 7 8 17 15 22 15 5 0 28 18 50 40
23 22 48 40 55 40 7 0 13 5 13 10 0 6 9 10 19 10 11 0 23 5 26 10 3 6 16 10
29 10 13 0 31 9 41 20 10 11 21 20 25 20 21 0 -24 -221 -53 -257 -12 -17 -2
-43 18 -43 8 0 15 -9 15 -20 0 -22 -20 -70 -29 -70 -9 0 -33 -83 -36 -122 -2
-21 -11 -37 -26 -47 -37 -24 -68 -59 -75 -85 -10 -42 -1 -70 26 -77 20 -6 21
-7 5 -8 -30 -2 -58 -28 -52 -46 4 -8 2 -15 -3 -15 -15 0 -12 -60 3 -60 6 0 4
-5 -6 -11 -9 -5 -24 -23 -32 -40 -15 -29 -35 -56 -63 -85 -11 -12 -11 -14 2
-14 10 0 16 -9 16 -22 0 -17 -3 -19 -9 -9 -14 22 -22 -4 -20 -66 2 -58 -20
-123 -42 -123 -5 0 -16 -15 -24 -34 -8 -19 -20 -36 -27 -39 -10 -4 -10 -6 0
-6 6 -1 12 -5 12 -11 0 -5 -7 -7 -15 -4 -10 4 -15 0 -15 -10 0 -9 -7 -19 -15
-22 -8 -4 -15 -16 -15 -28 0 -14 -9 -27 -24 -34 -13 -6 -27 -20 -31 -30 -11
-37 -41 -36 -63 3 -8 14 -11 15 -12 5 0 -8 -12 -25 -27 -39 -18 -15 -24 -25
-15 -28 22 -8 13 -43 -13 -53 -14 -5 -33 -22 -42 -38 -11 -16 -25 -26 -34 -24
-11 2 -19 -6 -23 -22 -9 -36 -153 -174 -232 -222 -18 -11 -42 -29 -51 -40 -10
-10 -34 -30 -53 -44 -43 -30 -96 -76 -129 -112 -14 -16 -29 -28 -33 -28 -11 0
-98 -91 -98 -102 0 -4 -6 -8 -14 -8 -19 0 -35 -22 -42 -60 -7 -32 -6 -33 20
-26 15 4 40 18 54 31 15 14 32 25 39 25 7 0 27 13 45 28 51 44 207 145 268
174 30 14 102 48 160 75 58 27 111 57 119 66 7 10 21 17 31 17 9 0 20 3 23 7
4 3 30 15 59 25 40 14 54 15 59 6 5 -7 3 -15 -2 -19 -6 -3 -9 -10 -7 -16 4
-12 -82 -107 -89 -99 -10 10 -32 -15 -27 -28 5 -14 -43 -32 -54 -21 -3 3 0 5
6 5 7 0 12 7 12 15 0 21 -7 19 -34 -10 -13 -14 -32 -25 -43 -25 -23 0 -37 -14
-47 -48 -12 -39 20 -38 71 2 25 20 52 36 59 36 20 0 71 33 70 45 -1 6 24 12
54 15 77 7 82 12 64 62 -21 60 -18 75 16 81 20 4 28 11 24 20 -3 8 6 21 20 31
29 19 26 29 31 -87 2 -27 5 -50 7 -53 11 -10 38 10 63 47 14 22 41 57 59 77
31 34 35 45 41 120 6 73 4 87 -14 118 -12 19 -21 42 -21 50 0 21 83 183 116
226 29 38 74 105 107 160 10 16 29 57 43 91 13 34 44 91 68 127 24 36 60 97
81 135 21 39 50 88 65 110 15 22 36 58 48 80 52 104 65 125 73 125 18 0 19
-26 4 -69 -8 -24 -15 -64 -15 -90 0 -51 -24 -96 -46 -87 -15 6 -38 -29 -29
-43 3 -5 38 -9 78 -9 39 0 85 -5 100 -11 16 -6 35 -11 43 -11 28 0 56 88 60
190 3 52 13 129 24 170 10 41 21 88 25 103 3 17 15 31 29 37 19 7 27 21 36 66
7 32 9 73 5 93 -4 20 -8 45 -10 56 -2 18 -29 84 -56 141 -7 14 -6 40 5 88 9
37 16 80 16 96 0 16 5 32 10 35 6 3 10 48 10 100 0 138 29 195 101 195 52 0
66 -20 34 -50 -14 -13 -21 -26 -17 -29 18 -12 43 -73 37 -91 -3 -11 -19 -29
-36 -40 -29 -21 -38 -53 -19 -65 6 -3 10 -16 11 -28 0 -13 3 -16 6 -8 4 9 19
-2 49 -35 38 -41 44 -53 44 -91 0 -36 -4 -45 -22 -52 -13 -5 -27 -7 -33 -5 -5
2 -30 -22 -54 -52 -49 -62 -56 -102 -22 -138 17 -18 19 -30 14 -78 -5 -48 -2
-65 23 -117 26 -55 36 -66 91 -97 76 -42 93 -65 93 -124 0 -25 5 -62 10 -82 9
-31 7 -45 -9 -80 -15 -34 -18 -57 -14 -110 8 -94 -12 -182 -43 -197 -13 -5
-39 -34 -58 -63 l-34 -53 3 -175 c4 -186 10 -221 50 -281 14 -21 25 -46 25
-54 0 -9 13 -28 29 -44 l28 -28 -22 -21 c-30 -29 -35 -28 -65 13 -17 22 -39
38 -67 47 -24 7 -43 15 -43 19 0 4 -23 16 -51 28 -46 20 -93 31 -201 48 -20 3
-39 12 -43 21 -8 22 22 118 53 166 54 84 64 109 58 140 -20 103 -27 130 -40
140 -8 6 -16 36 -18 68 -5 67 -14 81 -34 54 -16 -23 -19 -87 -4 -102 7 -7 5
-30 -6 -69 -9 -35 -12 -75 -9 -96 12 -68 -40 -132 -116 -143 -64 -9 -84 -39
-91 -136 -3 -41 -14 -98 -23 -127 l-18 -52 43 -40 43 -40 36 16 c112 49 118
50 164 24 23 -13 65 -35 92 -49 57 -29 65 -37 65 -73 0 -33 27 -45 50 -24 10
9 33 18 52 21 30 5 40 1 73 -30 34 -32 37 -40 32 -73 -4 -20 -11 -39 -16 -43
-6 -3 -10 -33 -9 -65 1 -43 -6 -79 -24 -125 -14 -36 -28 -74 -32 -85 -14 -37
-49 -100 -81 -145 -45 -63 -81 -149 -110 -265 -28 -113 -32 -187 -11 -204 9
-8 28 -10 50 -6 27 6 42 2 67 -16 34 -24 116 -42 125 -27 9 14 71 9 78 -7 8
-21 23 -19 29 5 5 18 30 33 102 59 17 7 44 28 60 48 28 36 30 41 33 165 3 97
1 132 -9 144 -7 9 -18 26 -24 38 -6 13 -22 22 -40 24 -27 3 -65 34 -65 53 0 4
-7 15 -16 23 -16 17 -57 13 -82 -7 -9 -7 -16 -7 -24 1 -15 15 0 34 22 27 19
-6 70 12 82 30 4 5 8 22 8 36 0 47 42 163 66 185 13 12 24 29 24 39 0 9 14 30
31 46 36 34 32 47 -33 103 -71 61 -78 69 -85 95 -3 13 3 48 14 80 18 49 24 56
54 63 18 3 43 18 55 31 27 31 42 116 22 128 -9 6 -12 34 -10 111 2 82 -2 123
-21 203 -28 112 -28 185 -1 313 9 42 18 93 19 112 2 19 8 82 15 140 10 92 15
108 41 137 16 19 29 40 29 49 0 8 7 17 15 20 17 7 21 44 4 44 -5 0 -7 4 -4 10
3 5 -1 23 -10 39 -9 18 -11 32 -5 36 11 7 3 35 -14 50 -25 22 -105 133 -126
175 -15 30 -25 75 -31 140 -10 113 -30 210 -53 265 -11 26 -16 61 -15 100 3
62 -17 130 -82 273 -16 35 -29 68 -29 73 0 5 -4 17 -10 27 -5 9 -18 38 -29 64
-12 27 -43 66 -74 95 -30 26 -64 67 -77 91 -13 23 -29 42 -35 42 -20 0 -42 33
-49 72 -4 20 -10 38 -15 40 -15 6 -112 147 -109 160 5 27 -15 75 -51 123 -21
28 -40 60 -43 73 -7 24 11 114 29 147 21 40 40 91 48 125 4 19 12 42 19 50 23
30 36 60 36 82 0 12 10 57 22 100 l23 78 35 0 c54 0 77 10 89 36 14 31 14 91
1 99 -14 8 -13 68 2 100 11 24 38 35 38 15 0 -14 49 -60 65 -60 10 0 15 11 16
33 0 17 2 70 3 117 1 47 8 101 15 121 14 35 13 36 -23 73 -34 35 -51 70 -45
92 4 15 -13 118 -21 129 -5 6 -8 62 -8 126 1 68 -4 124 -11 136 -18 34 -13 60
14 80 l26 18 -16 100 c-9 55 -21 114 -26 132 -12 39 -10 223 2 274 6 23 32 62
73 105 34 38 71 85 81 104 9 19 24 43 32 52 8 9 12 22 8 27 -3 6 1 11 9 11 9
0 15 -5 13 -10 -1 -6 22 -32 52 -58 50 -45 54 -51 58 -102 7 -75 6 -99 -6
-219 -9 -87 -17 -114 -43 -160 -17 -31 -36 -60 -42 -66 -8 -7 -10 -45 -6 -125
5 -110 0 -158 -31 -256 -5 -17 -9 -40 -9 -52 0 -19 -27 -77 -50 -107 -16 -21
-6 -44 21 -50 37 -8 40 -6 93 73 46 69 57 120 33 151 -9 10 -7 17 8 27 10 8
25 14 32 14 13 0 17 20 13 72 -1 15 4 37 10 49 8 13 13 75 14 153 2 72 7 140
13 151 6 11 14 99 16 195 3 96 10 191 16 210 19 60 20 58 -87 110 l-43 21 7
46 c6 43 -2 62 -28 63 -16 0 -7 -19 10 -23 16 -4 16 -5 0 -6 -10 0 -18 -6 -18
-12 0 -5 -5 -7 -11 -3 -6 3 -9 16 -7 29 10 51 -104 55 -220 7 -48 -19 -65 -23
-74 -14 -16 16 -11 174 8 227 7 24 18 82 24 131 11 106 25 191 40 259 6 28 17
88 25 135 8 46 19 105 24 130 6 25 13 61 15 80 3 19 10 51 16 70 5 19 10 60
10 90 0 31 7 82 15 113 19 74 19 173 0 227 -9 26 -13 57 -9 76 3 19 -1 56 -11
91 -13 45 -16 90 -14 203 1 80 -2 158 -6 173 -6 22 -2 39 14 68 l22 39 -36
102 c-38 108 -93 219 -126 254 -11 12 -23 45 -28 73 -7 42 -16 61 -49 94 -24
25 -50 66 -63 100 -16 41 -34 68 -61 90 -21 17 -38 38 -38 47 0 10 -13 34 -30
55 -16 21 -30 49 -30 62 0 30 -51 83 -80 83 -30 0 -90 33 -125 70 -16 17 -56
50 -89 73 -96 69 -124 96 -136 133 -8 24 -21 38 -45 48 -23 10 -36 24 -44 49
-16 48 -35 63 -125 93 -43 14 -110 43 -149 64 -40 21 -101 47 -137 57 -36 9
-104 39 -152 65 -48 26 -168 86 -267 133 -99 47 -195 94 -213 104 -70 41 -314
63 -443 40z m-896 -1635 c32 -9 68 -13 90 -9 91 15 216 13 285 -6 38 -10 101
-19 140 -20 48 -1 79 -6 96 -17 43 -29 140 -45 270 -46 125 -1 162 -7 190 -31
19 -16 127 -35 163 -28 15 3 27 12 27 19 0 21 37 17 61 -7 18 -18 25 -19 45
-10 35 15 266 4 280 -14 6 -7 32 -15 59 -17 58 -4 75 -23 59 -67 -17 -43 -5
-55 42 -42 22 6 59 11 84 11 33 0 48 5 57 19 17 27 62 24 75 -4 8 -19 6 -29
-10 -52 -11 -16 -23 -44 -27 -63 l-6 -35 57 -3 c49 -3 61 -8 85 -33 25 -26 34
-30 71 -27 42 3 43 2 46 -32 2 -19 12 -44 21 -55 10 -11 29 -48 42 -83 14 -35
29 -60 35 -58 16 6 34 -14 34 -36 0 -10 7 -18 15 -18 12 0 13 -4 6 -19 -8 -14
-6 -23 9 -36 14 -13 20 -31 20 -61 0 -28 6 -50 18 -61 39 -40 74 -149 65 -209
-6 -43 -4 -45 43 -89 26 -25 56 -45 66 -45 10 0 25 -11 34 -25 8 -13 36 -34
60 -45 44 -22 118 -96 109 -111 -3 -4 4 -11 16 -14 34 -11 88 -77 109 -135 11
-30 25 -63 30 -72 6 -10 10 -29 10 -44 0 -14 5 -34 10 -44 6 -12 7 -28 1 -44
-9 -22 -12 -23 -35 -13 -28 13 -32 22 -16 32 6 3 10 14 9 23 0 14 -2 13 -9 -3
l-8 -20 -9 20 c-17 40 -57 98 -60 88 -2 -5 -38 -9 -83 -7 -62 1 -80 -1 -80
-12 0 -29 -18 -12 -38 36 -12 28 -25 50 -31 50 -5 0 -11 8 -14 18 -3 12 -8 8
-20 -19 -14 -31 -47 -71 -47 -56 0 8 -81 -12 -118 -30 -25 -12 -36 -13 -45 -4
-6 6 -34 11 -63 11 -53 0 -79 15 -69 41 4 11 -10 14 -70 15 -55 1 -80 5 -94
18 -15 13 -23 15 -47 6 -16 -6 -43 -9 -60 -5 -26 4 -67 -5 -92 -21 -2 -1 6
-13 18 -27 15 -17 37 -27 68 -32 78 -10 84 -14 78 -41 -8 -30 17 -44 78 -44
24 0 57 -5 71 -10 25 -9 26 -13 20 -49 -6 -36 -5 -39 14 -34 21 5 28 -9 33
-72 3 -27 0 -30 -24 -27 -18 2 -32 -5 -45 -21 -21 -27 -63 -45 -63 -28 0 6 -9
11 -20 11 -11 0 -20 -4 -20 -10 0 -18 -40 -51 -53 -43 -31 20 -118 44 -178 49
-72 7 -88 -1 -69 -36 13 -24 23 -23 -150 -25 -166 -2 -313 -28 -350 -62 -29
-27 -107 -59 -118 -49 -12 13 61 64 113 80 91 28 150 49 163 59 25 20 -23 34
-86 25 -31 -4 -78 -10 -104 -13 -26 -4 -53 -12 -60 -18 -22 -21 -97 -57 -121
-57 -12 0 -33 -9 -46 -19 -23 -18 -24 -20 -12 -77 l11 -59 -35 -32 c-19 -17
-35 -41 -35 -52 0 -34 37 -44 175 -46 72 -2 167 -6 213 -10 71 -7 82 -6 82 8
0 11 -12 18 -37 22 -21 3 -73 14 -116 24 -43 11 -87 17 -97 14 -11 -3 -27 0
-35 7 -14 11 -14 15 1 31 10 11 21 19 26 19 14 0 98 40 140 66 62 39 98 28 98
-31 0 -36 31 -82 87 -130 38 -33 41 -33 136 -33 60 0 103 -5 112 -12 9 -8 32
-9 69 -5 48 6 59 4 87 -15 17 -13 40 -42 50 -65 27 -61 56 -70 215 -68 99 1
137 -2 159 -13 16 -8 35 -12 43 -9 8 3 21 0 28 -6 14 -11 38 -3 29 11 -3 4 2
10 10 14 8 3 15 14 15 24 0 10 11 28 24 39 13 11 25 26 27 32 5 15 33 16 79 3
48 -13 88 -31 72 -31 -25 -2 -1 -21 25 -21 29 0 73 -35 73 -57 0 -7 5 -13 10
-13 6 0 10 -8 10 -17 0 -10 7 -26 14 -36 9 -11 12 -33 9 -61 -5 -37 -2 -46 16
-55 13 -7 21 -21 21 -37 0 -15 11 -39 25 -56 14 -16 26 -39 26 -51 1 -12 3
-29 4 -37 1 -8 3 -32 4 -53 1 -30 6 -40 21 -44 22 -6 27 -23 8 -23 -7 0 -5 -5
5 -11 9 -6 15 -15 11 -20 -3 -6 -2 -18 2 -27 19 -44 6 -92 -25 -92 -9 -1 -1
-7 18 -15 18 -8 37 -12 42 -9 5 3 9 -4 9 -15 0 -14 -5 -19 -15 -15 -12 5 -15
-5 -15 -55 0 -34 -4 -61 -9 -61 -13 0 -24 -72 -13 -79 13 -8 19 -72 8 -89 -4
-7 -5 -28 -2 -46 8 -42 -1 -66 -24 -66 -19 0 -27 -16 -28 -61 -1 -19 5 -29 21
-34 19 -6 19 -8 5 -12 -20 -5 -23 -24 -19 -127 3 -65 2 -68 -18 -61 -16 5 -21
2 -21 -12 0 -10 7 -26 15 -37 21 -28 30 -122 14 -142 -9 -11 -14 -44 -13 -95
0 -53 -4 -80 -12 -83 -10 -4 -9 -18 2 -62 15 -56 15 -57 -10 -83 -22 -23 -26
-36 -25 -82 1 -29 4 -67 8 -84 9 -38 -16 -105 -38 -105 -21 0 -51 -50 -51 -84
0 -24 -61 -96 -81 -96 -5 0 -15 -13 -24 -30 -9 -17 -22 -30 -30 -30 -8 0 -15
-6 -15 -12 0 -7 -14 -27 -30 -45 -17 -18 -30 -39 -30 -48 0 -9 -9 -30 -21 -46
-18 -26 -27 -30 -62 -28 -23 1 -50 -2 -59 -6 -12 -5 -18 -3 -18 6 0 8 -8 4
-19 -10 -13 -17 -23 -22 -39 -16 -12 3 -22 11 -22 16 0 15 -38 10 -48 -6 -4
-9 -26 -19 -47 -22 -42 -7 -65 -23 -65 -45 0 -23 -22 -38 -57 -38 -30 0 -73
-30 -73 -51 0 -18 -46 -49 -71 -49 -15 0 -29 -5 -31 -11 -2 -7 -12 -7 -31 0
-15 6 -32 9 -39 7 -7 -3 -25 -7 -39 -10 -14 -3 -38 -17 -55 -31 -17 -15 -36
-23 -46 -19 -11 3 -20 -1 -24 -10 -3 -9 -9 -14 -13 -12 -9 6 -34 -15 -54 -46
-12 -20 -26 -28 -47 -28 -16 0 -32 -4 -35 -10 -3 -5 -17 -10 -30 -10 -32 0
-55 -10 -55 -24 0 -6 -17 -22 -36 -36 -20 -14 -44 -32 -54 -41 -9 -9 -29 -19
-44 -23 -17 -4 -26 -13 -26 -26 0 -11 -7 -20 -15 -20 -9 0 -30 -20 -47 -45
-18 -25 -35 -45 -39 -45 -4 0 -20 -11 -36 -23 -15 -13 -41 -27 -56 -31 -16 -4
-40 -18 -54 -32 -18 -18 -39 -26 -81 -30 -41 -4 -64 -13 -83 -30 -18 -18 -36
-24 -68 -24 -23 0 -54 -6 -69 -14 -37 -19 -123 -19 -206 1 -54 12 -76 13 -100
5 -17 -6 -67 -14 -111 -18 -70 -6 -85 -4 -115 14 -21 12 -64 23 -108 27 -60 6
-74 11 -84 29 -32 60 -110 118 -183 136 -54 12 -78 27 -69 41 8 13 -54 69 -77
69 -10 0 -19 5 -19 10 0 6 -7 10 -16 10 -9 0 -18 9 -21 20 -3 11 -12 20 -19
20 -24 0 -28 2 -56 21 -14 10 -32 19 -40 20 -10 0 -10 2 0 6 15 6 16 33 1 33
-5 0 -7 5 -4 10 3 6 -2 10 -12 10 -24 0 -65 29 -58 40 5 9 -75 3 -84 -6 -2 -2
-9 3 -15 11 -6 9 -22 17 -36 20 -14 3 -30 11 -36 20 -8 11 -18 12 -44 5 -18
-5 -37 -7 -41 -4 -5 3 -6 -2 -3 -10 11 -29 -15 -17 -31 14 -14 26 -67 53 -110
55 -5 0 -15 6 -20 13 -6 7 -21 11 -34 10 -18 -2 -28 4 -37 22 -9 17 -24 27
-46 30 -18 3 -33 10 -34 15 0 6 -4 18 -7 28 -4 9 -9 23 -11 31 -2 7 -18 16
-34 19 -18 4 -31 14 -35 26 -3 14 -13 21 -30 21 -25 0 -41 -21 -46 -60 0 -5
-8 -10 -16 -10 -20 0 -78 -29 -87 -44 -5 -7 -16 -5 -37 7 -16 9 -36 17 -44 17
-8 0 -17 6 -20 14 -3 8 -18 16 -33 18 -22 2 -33 14 -54 56 -29 60 -43 72 -81
72 -35 0 -66 37 -72 84 -3 22 -12 43 -21 48 -8 5 -13 15 -10 22 6 17 -27 31
-36 15 -6 -8 -9 -8 -15 1 -4 6 -14 9 -22 6 -9 -4 -17 1 -20 15 -4 12 -11 18
-20 15 -10 -4 -12 -2 -5 10 11 20 -8 76 -23 70 -7 -2 -9 9 -7 30 2 19 9 34 14
34 14 0 0 52 -18 66 -17 13 -18 35 -9 137 5 44 4 77 -1 77 -5 0 -9 44 -10 97
0 126 -13 215 -33 229 -13 10 -13 16 1 53 19 47 13 104 -23 218 -14 46 -17 68
-10 82 6 10 10 44 9 76 -1 44 2 61 15 70 15 11 16 13 2 19 -8 3 -14 9 -14 13
1 4 -1 17 -5 28 -29 76 -38 119 -41 188 -1 44 2 60 14 67 14 8 13 11 -5 24
-19 13 -21 24 -20 98 1 46 4 88 8 93 3 6 9 32 13 60 6 35 16 58 37 78 26 27
28 35 28 100 -1 40 2 93 5 119 6 40 11 48 36 57 26 9 28 12 19 36 -31 81 -1
117 88 105 30 -4 49 -3 45 3 -3 5 1 13 8 18 17 11 69 12 69 1 0 -4 17 -26 39
-50 33 -36 44 -42 80 -42 22 0 41 -5 41 -11 0 -6 8 -8 18 -5 9 2 47 7 84 11
52 5 67 10 71 24 3 14 23 21 85 31 63 11 82 17 85 32 5 19 37 26 37 8 0 -22
20 -8 35 24 14 29 24 35 83 50 37 9 82 21 100 27 25 8 51 7 107 -6 72 -16 78
-15 172 4 53 12 129 21 169 21 39 0 91 7 114 15 23 8 64 15 91 15 32 0 49 4
50 13 5 47 -15 78 -65 104 -22 12 -26 17 -15 24 8 5 29 6 47 3 28 -5 32 -4 32
15 0 14 -9 25 -25 31 -14 5 -28 18 -32 27 -8 23 -23 33 -48 33 -11 0 -48 13
-83 30 -34 16 -64 28 -65 27 -2 -1 -14 5 -27 14 -30 19 -115 33 -132 22 -7 -4
-25 -6 -40 -4 -22 2 -28 -2 -28 -17 0 -18 -7 -19 -165 -14 -108 3 -169 1 -177
-6 -8 -6 -29 -7 -56 -2 -23 4 -62 5 -85 3 -34 -4 -46 -1 -61 16 -14 15 -31 21
-63 21 -24 0 -58 6 -76 14 -19 8 -55 11 -87 9 -66 -5 -95 9 -66 32 11 8 37 15
59 15 38 0 39 0 34 35 -6 41 11 55 63 55 36 0 90 25 90 42 0 6 -7 16 -17 23
-19 14 -12 43 14 51 10 3 26 10 37 16 12 6 22 6 29 -1 6 -6 35 -11 64 -11 30
0 53 -5 53 -10 0 -6 8 -13 18 -17 9 -3 55 -24 102 -46 110 -51 156 -67 191
-67 16 0 50 -11 76 -24 77 -39 111 -46 243 -53 112 -5 127 -4 140 12 13 15 10
21 -30 59 -25 22 -45 44 -46 49 -1 4 -2 11 -3 17 -4 33 -153 58 -374 63 -89 2
-98 4 -124 30 -20 18 -40 27 -61 27 -18 0 -50 12 -72 26 -36 24 -48 26 -147
27 -105 0 -145 -8 -203 -44 -35 -22 -62 -28 -91 -22 -27 5 -30 9 -27 37 3 30
2 31 -39 34 -26 2 -43 -1 -43 -7 0 -12 -41 -14 -89 -5 -29 6 -31 10 -31 48 0
55 -10 67 -50 63 -29 -2 -36 -7 -44 -35 -5 -17 -12 -32 -16 -32 -4 0 -11 -16
-14 -35 -4 -19 -15 -40 -25 -47 -10 -7 -28 -32 -39 -55 -31 -60 -63 -82 -110
-76 -27 4 -43 0 -54 -11 -15 -15 -17 -11 -23 47 -5 51 -3 71 14 110 12 27 21
61 21 77 0 22 5 29 23 32 17 2 21 8 19 30 -3 23 2 30 30 41 18 8 51 32 73 54
65 64 131 113 151 113 31 0 64 29 64 55 0 16 17 41 50 73 39 38 50 56 50 79 0
25 -5 33 -30 42 -35 12 -34 9 -31 171 3 130 6 150 27 150 20 0 17 10 -12 37
-32 29 -30 69 4 66 23 -3 31 24 13 43 -6 5 -3 31 10 69 11 33 21 77 23 97 3
42 46 105 64 94 20 -12 13 -24 -10 -19 -22 5 -22 5 -5 -13 17 -18 19 -18 28
-1 6 9 16 17 24 17 8 0 16 4 19 8 2 4 -7 8 -22 7 -38 0 -41 30 -5 40 15 5 32
7 38 6 5 -2 7 0 3 4 -3 4 1 15 10 25 78 86 129 131 151 136 14 3 46 12 71 21
25 8 77 19 115 25 39 5 88 18 110 28 66 29 108 42 150 46 22 1 54 6 70 9 17 3
72 9 123 12 50 3 92 9 92 14 0 5 5 9 11 9 5 0 7 -5 3 -12 -5 -7 -2 -9 9 -5 8
3 33 9 54 13 21 4 50 15 65 25 21 15 45 19 115 19 48 0 95 5 103 10 24 15 171
12 229 -6z m-1729 -1724 c12 -8 12 -10 -5 -10 -11 0 -27 5 -35 10 -12 8 -12
10 5 10 11 0 27 -5 35 -10z m4430 -25 c0 -8 -4 -15 -9 -15 -13 0 -22 16 -14
24 11 11 23 6 23 -9z m-4500 -45 c12 -8 12 -14 -4 -47 l-18 -38 -18 35 c-25
47 -2 77 40 50z m-302 -170 c0 -16 -4 -30 -9 -30 -5 0 -9 3 -9 8 0 4 -3 17 -6
30 -5 15 -2 22 8 22 10 0 15 -11 16 -30z m4559 -76 c-3 -3 -12 -4 -19 -1 -8 3
-5 6 6 6 11 1 17 -2 13 -5z m-4476 -59 c4 3 11 0 14 -5 9 -15 -4 -67 -13 -53
-10 15 -51 35 -61 29 -5 -3 -15 1 -22 10 -18 22 5 34 44 23 16 -5 33 -6 38 -4z
m674 -5 c3 -5 -3 -10 -14 -10 -12 0 -21 5 -21 10 0 6 6 10 14 10 8 0 18 -4 21
-10z m3472 4 c-3 -3 -12 -4 -19 -1 -8 3 -5 6 6 6 11 1 17 -2 13 -5z m-3507
-40 c0 -8 -5 -12 -10 -9 -6 4 -8 11 -5 16 9 14 15 11 15 -7z m3298 -94 c41
-25 48 -44 28 -75 -18 -28 -104 -75 -136 -75 -24 0 -28 36 -5 66 8 10 15 27
15 36 1 66 38 84 98 48z m-818 -8 c0 -5 -9 -17 -20 -27 -16 -14 -20 -15 -20
-4 0 16 19 39 32 39 4 0 8 -4 8 -8z m570 4 c0 -3 -4 -8 -10 -11 -5 -3 -10 -1
-10 4 0 6 5 11 10 11 6 0 10 -2 10 -4z m-2250 -27 c19 -12 62 -31 94 -43 33
-12 61 -27 63 -33 5 -13 -57 -33 -103 -33 -17 0 -48 -7 -67 -15 -20 -8 -53
-15 -73 -15 -41 0 -41 3 -9 90 29 77 39 83 95 49z m-512 -1 c7 -7 12 -23 12
-35 0 -13 9 -42 20 -64 12 -22 18 -44 15 -49 -8 -13 -52 -13 -60 -1 -3 5 -19
12 -35 16 -36 8 -90 51 -90 71 0 16 86 74 110 74 9 0 21 -5 28 -12z m-640
-155 c12 -21 -44 -76 -71 -69 -10 2 -26 -5 -37 -17 l-20 -21 0 21 c0 23 45 59
55 43 12 -19 25 -10 25 18 0 21 -2 24 -10 12 -8 -12 -10 -11 -10 5 0 27 54 34
68 8z m-148 -108 c0 -8 -7 -15 -16 -15 -8 0 -13 4 -10 9 4 5 0 12 -6 14 -7 3
-3 6 10 6 13 1 22 -5 22 -14z m5160 -11 c0 -8 5 -14 10 -14 16 0 11 -47 -5
-54 -9 -3 -15 -14 -13 -23 2 -12 -3 -18 -17 -18 -16 0 -21 8 -23 39 -2 22 -1
49 2 60 6 25 46 33 46 10z m-5736 -173 c3 -5 -1 -11 -9 -15 -9 -3 -15 0 -15 9
0 16 16 20 24 6z m-129 -612 c11 -17 -1 -21 -15 -4 -8 9 -8 15 -2 15 6 0 14
-5 17 -11z m205 -549 c0 -5 -7 -7 -15 -4 -8 4 -15 8 -15 10 0 2 7 4 15 4 8 0
15 -4 15 -10z m467 -886 c-3 -3 -12 -4 -19 -1 -8 3 -5 6 6 6 11 1 17 -2 13 -5z
m-143 -1370 c11 -27 17 -131 19 -310 2 -200 1 -206 -64 -238 -26 -13 -29 -12
-53 14 -40 46 -53 81 -61 163 -7 73 -6 80 18 115 14 20 29 49 32 65 4 15 12
27 19 27 8 0 8 2 0 8 -16 10 -25 74 -14 92 5 8 10 12 10 8 0 -14 40 31 40 45
0 34 42 42 54 11z m-396 -6 c14 -14 16 -124 2 -133 -5 -3 -10 -16 -10 -28 0
-13 -8 -34 -17 -47 -14 -20 -17 -44 -15 -125 1 -55 7 -125 13 -155 18 -84 14
-121 -21 -188 -34 -65 -53 -87 -69 -78 -17 11 -102 -16 -114 -35 -15 -24 -29
-24 -45 1 -10 17 -7 42 20 153 17 72 34 134 38 137 10 8 39 83 49 125 5 22 16
58 25 80 8 22 15 64 16 93 0 52 27 120 74 185 22 29 36 33 54 15z m-624 -540
c46 -13 68 -27 61 -38 -6 -10 -243 -55 -251 -48 -11 12 67 81 100 88 45 11 45
11 90 -2z m-514 -89 c0 -24 -15 -32 -50 -24 -39 9 -40 40 -2 53 31 11 52 -1
52 -29z m320 -13 c0 -9 -63 -35 -71 -30 -15 9 -10 22 9 27 23 6 62 8 62 3z
m-446 -22 c24 -9 19 -39 -8 -54 -13 -7 -26 -20 -29 -30 -5 -20 -107 -56 -132
-47 -8 4 -15 2 -15 -2 0 -5 6 -12 13 -14 6 -3 1 -6 -13 -6 -14 0 -32 3 -40 9
-12 7 -12 12 4 29 23 25 95 61 122 61 11 0 33 14 49 30 16 17 30 30 31 30 1 0
9 -3 18 -6z m6766 -24 c0 -11 -28 -32 -38 -28 -6 2 -6 13 -1 25 5 15 14 21 24
17 8 -3 15 -10 15 -14z m-5138 -159 c7 -10 29 -22 48 -26 114 -23 143 -96 155
-390 3 -78 12 -165 20 -195 18 -66 19 -116 4 -158 -8 -23 -21 -35 -52 -46 -49
-17 -137 -27 -137 -15 0 4 -8 10 -18 13 -20 7 -92 99 -92 118 0 7 -11 49 -25
93 -14 44 -25 95 -25 113 0 18 -11 60 -24 93 -14 33 -22 67 -19 74 3 8 0 15
-7 15 -8 0 -11 9 -7 26 2 14 -2 38 -9 53 -23 43 -16 63 36 114 27 27 62 69 77
93 30 47 54 55 75 25z m539 -186 c24 -31 59 -74 77 -97 41 -51 72 -110 72
-137 0 -11 -12 -34 -27 -50 -43 -46 -73 -88 -73 -100 0 -6 -6 -11 -14 -11 -8
0 -20 -2 -28 -5 -21 -8 -64 63 -67 112 -1 6 -26 42 -56 78 -58 71 -64 86 -41
107 9 9 12 30 8 74 -4 60 -4 62 24 72 61 22 79 16 125 -43z m-1971 -45 c11
-11 20 -26 21 -32 0 -7 4 -47 8 -88 14 -138 -18 -438 -51 -478 -25 -29 -68
-40 -177 -47 -63 -3 -119 -9 -125 -12 -17 -11 -60 -11 -89 0 -21 7 -36 26 -54
66 -22 48 -26 70 -27 178 -1 67 -5 125 -9 129 -4 4 -7 18 -7 32 0 14 -5 42
-11 62 -11 35 -9 41 16 74 15 19 37 38 48 42 12 3 41 15 65 26 24 10 73 21
110 23 40 3 84 13 107 25 54 28 147 28 175 0z m1062 -20 c4 0 14 -12 22 -27
17 -35 15 -218 -3 -252 -7 -13 -15 -51 -17 -85 -4 -70 -23 -112 -76 -168 -21
-22 -42 -56 -48 -76 -13 -45 -46 -71 -97 -74 -41 -3 -41 -3 -121 -79 -28 -27
-57 -49 -62 -49 -6 0 -28 18 -49 40 -35 36 -40 48 -46 105 -4 35 -4 81 -1 102
3 21 8 61 10 89 2 27 10 66 19 85 31 68 59 155 68 208 11 68 58 191 74 191 6
0 15 -4 21 -10 17 -17 112 -15 132 4 11 9 40 18 66 20 26 2 49 6 52 9 4 3 15
-3 27 -14 11 -10 24 -19 29 -19z m-2022 -30 c0 -11 7 -20 15 -20 8 0 15 -4 15
-10 0 -21 -36 -50 -61 -50 -15 0 -32 -7 -39 -15 -6 -8 -22 -17 -33 -21 -12 -3
-36 -17 -54 -30 -42 -32 -46 -30 -22 11 18 31 19 36 5 41 -12 5 -13 10 -5 26
8 15 17 18 40 13 21 -5 29 -3 29 7 0 10 3 9 10 -2 8 -12 10 -11 10 8 0 14 11
29 33 42 41 25 57 25 57 0z m5190 -4 c0 -14 -4 -28 -10 -31 -6 -4 -10 7 -10
24 0 17 5 31 10 31 6 0 10 -11 10 -24z m-5436 -142 c4 -9 4 -19 2 -21 -8 -8
-26 8 -26 23 0 19 16 18 24 -2z m20 -59 c-4 -8 -12 -15 -20 -15 -8 0 -14 -5
-14 -11 0 -17 -32 -38 -56 -39 -13 0 -24 -8 -27 -20 -3 -11 -13 -23 -24 -26
-10 -3 -34 -13 -54 -21 -35 -14 -79 -11 -79 6 0 5 16 26 36 47 19 22 39 45 43
52 11 20 71 37 139 39 50 2 60 0 56 -12z m-294 -85 c0 -5 -5 -10 -11 -10 -5 0
-7 5 -4 10 3 6 8 10 11 10 2 0 4 -4 4 -10z m440 -31 c0 -11 5 -30 12 -42 6
-12 12 -44 13 -72 1 -27 5 -57 9 -66 19 -45 -158 -72 -228 -34 -40 22 -73 15
-118 -23 -35 -31 -117 -58 -143 -49 -10 4 -15 20 -15 46 0 38 3 42 59 74 32
19 67 37 77 40 11 3 45 13 77 22 32 9 57 22 57 29 0 8 15 19 33 27 29 11 46
23 80 56 6 7 29 12 50 13 31 0 37 -3 37 -21z m3010 -60 c0 -5 10 -23 21 -38
23 -31 19 -51 -10 -51 -24 0 -42 42 -35 80 6 27 24 34 24 9z m198 -186 c12
-12 34 -17 55 -14 4 1 30 -10 57 -24 27 -14 56 -25 65 -25 8 0 15 -4 15 -10 0
-5 8 -10 19 -10 10 0 28 -12 40 -27 11 -16 34 -45 50 -66 31 -40 31 -42 46
-262 4 -71 8 -82 30 -98 22 -17 25 -25 25 -85 -1 -79 -21 -128 -66 -157 -36
-23 -55 -66 -49 -112 4 -31 3 -33 -28 -33 -42 0 -103 17 -119 34 -27 26 -55
33 -130 32 -81 -2 -99 -11 -121 -54 -12 -26 -26 -35 -102 -68 -22 -9 -43 -18
-46 -20 -4 -2 -17 5 -30 15 -36 28 -72 32 -120 16 -44 -16 -98 -20 -137 -11
-47 11 -62 18 -62 30 0 6 -13 30 -29 52 -35 48 -45 89 -43 178 2 87 25 137 70
148 18 5 38 17 45 28 6 11 17 20 24 20 7 0 13 4 13 10 0 6 18 7 46 3 44 -6 48
-4 80 31 25 27 34 46 34 72 0 19 3 34 8 34 4 0 13 13 20 29 14 31 2 112 -20
138 -8 10 -8 20 2 37 7 13 10 29 6 34 -3 6 -2 13 4 17 6 4 7 13 2 21 -6 11 1
26 24 50 18 18 36 34 41 34 5 0 25 9 46 20 21 11 41 19 45 16 4 -2 36 -1 72 3
64 7 91 1 118 -26z m-632 -273 c19 0 34 5 34 10 0 6 20 10 45 10 25 0 45 -4
45 -9 0 -5 9 -13 20 -16 23 -7 97 -75 84 -76 -5 0 -18 -2 -29 -5 -11 -2 -66
-9 -122 -15 -106 -12 -164 -7 -181 14 -12 16 5 77 22 77 7 0 20 7 27 16 8 10
15 12 17 5 2 -6 19 -11 38 -11z m-2586 -123 c54 -3 70 -12 70 -38 0 -10 5 -19
11 -19 7 0 8 -7 3 -17 -15 -35 -19 -264 -5 -291 5 -9 6 -60 2 -113 -5 -86 -9
-99 -30 -116 -31 -25 -151 -32 -184 -10 -33 21 -81 27 -123 16 -21 -6 -61 -13
-88 -15 -28 -2 -62 -5 -76 -7 -57 -7 -98 43 -86 106 10 53 16 107 21 207 3 52
6 120 8 150 4 75 19 100 60 100 18 0 38 5 44 11 6 6 42 13 80 14 37 2 82 8 98
13 17 5 35 7 42 5 6 -2 14 1 18 7 4 7 23 9 48 5 23 -3 62 -7 87 -8z m1096
-132 c0 -81 5 -138 13 -153 6 -12 11 -39 10 -60 -1 -20 4 -50 10 -66 14 -34 0
-69 -56 -148 -26 -36 -41 -48 -61 -48 -14 0 -33 -6 -41 -14 -22 -20 -189 -46
-219 -35 -13 5 -39 9 -59 9 -46 0 -101 34 -110 68 -7 28 -7 171 1 257 2 28 5
96 5 152 1 128 4 131 111 133 44 0 86 1 93 1 6 0 44 -3 83 -7 65 -6 73 -5 110
19 26 18 50 26 74 24 l35 -2 1 -130z m900 127 c6 -4 21 -22 32 -41 19 -31 19
-36 5 -70 -8 -20 -26 -47 -39 -62 -13 -14 -24 -32 -24 -41 0 -9 -22 -43 -50
-76 -27 -33 -50 -64 -50 -69 0 -5 -15 -17 -32 -26 -18 -9 -44 -26 -58 -36 -15
-12 -46 -22 -77 -25 -56 -4 -58 -3 -53 51 1 15 -3 22 -12 20 -7 -2 -10 -2 -5
0 4 3 7 13 7 23 0 10 9 43 21 73 25 65 125 180 138 158 7 -10 9 -9 14 3 4 9
13 16 22 16 17 0 55 38 82 83 17 27 54 36 79 19z m2073 -268 c24 -8 60 -28 80
-44 19 -17 41 -30 48 -30 7 0 13 -5 13 -10 0 -6 8 -14 18 -17 9 -4 41 -31 71
-60 45 -44 51 -53 33 -53 -17 0 -22 -6 -22 -28 0 -39 -17 -52 -66 -52 -31 0
-55 9 -94 35 -29 19 -55 35 -59 35 -26 0 -73 36 -86 66 -8 19 -18 34 -24 34
-5 0 -25 15 -45 34 -19 19 -51 42 -70 51 -20 10 -36 24 -36 32 0 12 10 14 59
8 38 -4 61 -3 65 4 10 16 63 13 115 -5z m-1978 -166 c8 -15 8 -31 0 -59 -17
-55 -35 -69 -89 -68 -79 2 -105 11 -112 39 -7 28 8 83 20 75 5 -3 12 1 17 9 8
14 33 20 111 23 33 1 44 -3 53 -19z m2398 -223 c-7 -7 -15 -4 -24 9 -20 26 -9
39 15 18 14 -11 17 -19 9 -27z m-1489 -123 c18 -40 -6 -54 -35 -20 -28 33 -25
74 5 55 10 -6 24 -22 30 -35z m770 -18 c6 -15 18 -24 31 -24 23 0 58 -36 59
-61 0 -22 36 -51 97 -79 44 -19 57 -21 78 -12 15 7 25 20 25 32 0 12 7 20 18
20 14 0 15 -2 2 -10 -12 -8 -11 -10 6 -10 12 0 36 -16 55 -35 19 -19 44 -35
57 -35 20 0 46 -22 123 -107 14 -15 62 -63 107 -106 94 -90 100 -110 57 -191
-30 -56 -30 -67 -8 -109 10 -18 18 -39 19 -47 1 -8 4 -39 8 -68 7 -56 -5 -92
-28 -92 -16 0 -29 -27 -20 -41 8 -14 -24 -59 -41 -59 -9 0 -20 -12 -26 -27
-11 -28 -45 -103 -61 -136 -5 -10 -9 -37 -9 -60 0 -43 -5 -172 -8 -194 -2 -20
-21 -15 -41 9 -11 14 -14 25 -8 29 11 7 14 66 4 77 -4 4 -12 -1 -17 -11 -6 -9
-15 -14 -21 -11 -7 4 -8 2 -4 -4 11 -17 -12 -52 -34 -52 -22 0 -49 36 -49 65
0 138 -3 156 -24 175 -34 32 -63 30 -93 -8 -20 -25 -22 -25 -45 -10 -13 9 -41
32 -61 51 -20 19 -54 41 -75 47 -33 11 -83 52 -83 69 0 3 -23 31 -50 61 l-51
54 2 77 c1 42 -1 81 -4 86 -3 5 0 28 8 50 8 22 13 51 11 64 -4 32 -31 95 -45
104 -8 4 -11 44 -10 116 l1 110 37 18 c20 10 44 28 53 38 27 29 39 109 23 152
-11 32 -11 83 1 119 5 18 23 5 34 -24z m-742 -83 c9 -5 35 -14 57 -20 29 -8
47 -21 65 -48 41 -62 53 -74 101 -98 59 -31 71 -46 76 -101 2 -25 8 -55 14
-66 22 -41 1 -156 -27 -146 -5 2 -10 -7 -12 -19 -2 -13 1 -23 6 -23 11 0 32
-45 32 -71 0 -11 4 -18 9 -15 13 9 21 -31 21 -115 0 -69 -2 -79 -26 -103 -15
-14 -32 -26 -39 -26 -7 0 -25 -15 -39 -32 -59 -75 -74 -84 -149 -96 -67 -10
-73 -9 -93 9 -20 19 -31 20 -121 15 -189 -11 -213 -7 -213 39 0 14 -4 25 -10
25 -5 0 -10 8 -10 18 0 10 -13 39 -29 64 -29 46 -30 50 -36 225 -3 98 -7 221
-8 273 -1 52 -6 105 -10 118 -7 18 -2 30 26 61 19 21 36 44 39 51 6 20 178 26
203 7 18 -14 24 -13 58 6 20 11 37 27 37 35 0 17 28 41 48 42 7 0 20 -4 30 -9z
m-995 -37 c62 -32 113 -83 147 -147 l34 -65 -13 -63 c-7 -35 -20 -72 -28 -81
-16 -18 -11 -81 7 -103 13 -15 22 -213 10 -220 -6 -3 -10 -18 -10 -33 0 -31
-43 -117 -74 -148 -31 -31 -63 -46 -71 -34 -4 6 -12 10 -18 8 -7 -1 -30 2 -52
6 -22 5 -76 10 -120 11 -157 6 -153 4 -223 92 -9 12 -22 22 -28 23 -20 0 -24
28 -8 59 13 26 13 35 2 58 -12 24 -11 37 4 93 21 79 23 143 4 173 -13 20 -12
32 13 116 32 114 61 151 115 151 20 0 48 7 61 16 13 8 45 17 70 19 46 3 85 26
85 51 0 14 27 33 48 34 7 0 27 -7 45 -16z m-943 -73 c0 -5 13 -22 28 -38 24
-24 30 -39 35 -100 6 -57 4 -80 -10 -107 -15 -32 -15 -40 -2 -78 21 -64 19
-240 -4 -262 -9 -10 -17 -23 -17 -29 -1 -7 -11 -24 -23 -40 -17 -20 -39 -31
-88 -41 -63 -13 -162 -56 -174 -76 -7 -11 -132 -12 -177 -1 -15 3 -37 22 -52
43 -24 37 -25 37 -15 170 7 95 7 157 -2 216 -13 98 -5 184 23 230 20 32 20 32
103 32 47 0 97 -6 115 -13 44 -19 75 -10 120 32 56 54 140 90 140 62z m-1496
-90 c3 -4 25 -11 48 -15 24 -3 70 -10 103 -15 51 -9 64 -7 90 9 24 14 46 17
111 15 44 -1 90 -7 101 -13 26 -15 35 -70 27 -182 -8 -111 -5 -219 6 -241 15
-28 6 -146 -13 -167 -10 -10 -17 -23 -17 -29 0 -5 -9 -18 -20 -28 -11 -10 -20
-24 -20 -31 0 -28 -131 -35 -182 -9 -43 21 -75 19 -83 -4 -8 -28 -29 -33 -134
-36 -84 -2 -94 -1 -98 16 -3 11 -9 19 -13 19 -13 0 -22 33 -26 95 -2 33 -5 88
-8 122 -3 39 -1 63 6 65 7 3 11 68 13 191 l2 187 28 30 c28 29 68 40 79 21z
m5231 -127 c93 -11 245 -102 245 -148 0 -12 -12 -42 -27 -67 -44 -70 -89 -168
-114 -247 -16 -52 -32 -81 -53 -99 -17 -14 -35 -35 -41 -47 -8 -16 -19 -20
-40 -18 -17 2 -31 5 -33 7 -2 2 2 30 9 64 11 59 22 75 32 49 4 -8 8 -4 12 10
4 12 13 22 20 22 7 0 15 12 18 28 2 15 11 42 18 60 13 31 12 34 -11 53 -23 18
-60 40 -127 77 l-24 14 21 35 c28 47 28 99 0 152 -27 53 -21 76 18 67 15 -4
50 -9 77 -12z m-3790 -958 c18 -14 36 -40 43 -63 14 -49 5 -220 -14 -250 -10
-15 -13 -54 -12 -140 1 -65 -2 -125 -7 -133 -10 -16 -11 -21 -13 -83 -2 -46
-49 -97 -89 -97 -13 0 -40 -12 -59 -26 l-34 -26 -40 21 c-46 24 -71 18 -109
-22 -13 -14 -29 -23 -36 -21 -8 3 -12 -2 -12 -12 2 -13 -6 -19 -30 -21 -29 -2
-34 2 -63 53 -35 60 -64 154 -48 154 5 0 8 36 7 88 -2 69 1 87 12 87 17 0 20
97 5 133 -7 16 -6 29 1 41 6 9 11 48 12 85 1 64 3 71 44 124 56 74 94 84 190
53 36 -11 73 -18 83 -14 9 3 37 26 62 50 25 24 52 43 60 43 8 0 29 -11 47 -24z
m800 -32 c54 -30 60 -30 127 1 67 31 96 31 139 0 19 -14 41 -28 49 -31 54 -20
71 -123 45 -265 -13 -72 -15 -118 -10 -202 5 -78 4 -111 -5 -122 -6 -8 -14
-36 -16 -62 -3 -26 -13 -61 -24 -78 -11 -16 -28 -46 -39 -66 l-20 -37 -67 4
c-37 3 -74 10 -82 16 -18 16 -138 14 -157 -2 -20 -17 -130 -26 -139 -11 -4 6
-16 11 -27 11 -10 0 -20 7 -20 15 -1 8 -2 19 -3 24 0 5 -16 27 -35 48 -32 36
-33 41 -33 116 1 43 6 95 11 115 30 118 33 151 15 198 -14 38 -15 51 -6 78 7
18 12 55 12 83 0 42 6 58 37 99 41 55 68 77 95 79 10 1 20 4 23 6 15 15 90 6
130 -17z m1006 0 c6 -8 22 -14 35 -14 12 0 34 -4 47 -9 17 -7 45 -5 86 5 38 8
83 11 119 8 51 -6 62 -11 75 -34 33 -55 98 -119 125 -122 25 -3 27 -6 25 -42
-2 -22 -7 -42 -11 -45 -5 -3 -12 -32 -15 -65 -3 -32 -13 -66 -21 -75 -26 -28
-20 -79 12 -110 23 -24 26 -33 20 -57 -5 -16 -8 -77 -8 -136 -1 -105 -1 -108
-23 -108 -34 0 -65 -26 -92 -79 -13 -27 -31 -51 -40 -55 -9 -3 -46 -6 -81 -6
-44 0 -64 -4 -64 -12 -1 -7 -9 -2 -20 11 -33 39 -120 53 -226 36 -30 -5 -43
-3 -53 9 -8 9 -18 16 -23 16 -12 0 -47 41 -48 56 0 6 -13 29 -29 52 l-30 40
10 124 c6 67 13 151 16 186 3 45 0 75 -11 103 -13 31 -14 49 -6 83 5 24 9 68
8 97 -1 49 2 55 36 83 20 17 36 36 36 42 0 33 126 48 151 18z m2917 -444 c-6
-55 -11 -66 -27 -55 -12 7 -15 87 -4 98 3 4 13 7 21 7 11 0 14 -11 10 -50z
m-8 -164 c0 -24 -16 -43 -27 -32 -8 8 6 56 17 56 6 0 10 -11 10 -24z m23 -419
c10 -4 15 -11 12 -17 -9 -15 -45 7 -45 28 0 10 3 13 8 6 4 -6 15 -13 25 -17z
m-4907 -222 c11 -3 49 -31 83 -64 l62 -60 -12 -58 c-10 -48 -22 -387 -19 -540
0 -24 -4 -43 -9 -43 -5 0 -13 -10 -17 -22 -9 -31 -82 -95 -114 -101 -14 -3
-32 -2 -39 3 -8 4 -26 4 -39 -1 -18 -7 -29 -6 -41 4 -19 17 -99 15 -156 -3
-49 -15 -135 -21 -135 -9 0 5 -9 9 -19 9 -11 0 -30 14 -42 31 -20 28 -21 39
-15 107 3 42 11 92 17 111 17 53 40 114 51 135 5 10 12 39 15 65 8 83 49 237
69 261 7 8 20 35 30 60 22 58 58 96 97 105 96 20 167 23 233 10z m840 -24 c12
-1 38 -12 58 -26 43 -29 93 -33 112 -7 9 13 27 17 72 17 33 0 58 3 56 7 -3 4
2 5 10 2 9 -3 16 -10 16 -16 0 -5 4 -7 9 -4 13 8 59 -31 77 -66 10 -20 14 -42
10 -63 -4 -19 -3 -36 2 -39 5 -3 8 -32 7 -64 -2 -44 -9 -68 -26 -91 -22 -30
-23 -33 -10 -109 21 -120 25 -202 11 -202 -8 0 -10 -9 -6 -23 9 -39 -9 -81
-55 -127 -24 -24 -51 -54 -59 -68 -15 -24 -19 -25 -105 -23 -49 1 -95 7 -101
12 -13 11 -114 -17 -114 -31 0 -4 -15 -10 -32 -13 -18 -4 -43 -9 -56 -13 -18
-5 -30 2 -62 37 -22 24 -40 47 -40 51 0 4 -13 26 -29 50 l-28 43 7 113 c5 62
12 118 18 125 5 7 10 19 11 27 0 8 4 32 7 52 5 28 1 46 -14 70 -27 45 -39 118
-19 118 20 0 27 22 27 84 0 48 3 55 35 80 19 16 45 45 57 67 21 38 21 38 77
34 31 -2 65 -4 77 -4z m1157 -28 c15 -3 30 -9 33 -14 8 -13 71 -11 97 2 30 16
79 13 89 -5 5 -9 18 -16 30 -16 23 0 64 -29 121 -84 27 -26 37 -44 37 -66 0
-43 0 -43 16 -61 12 -13 14 -35 10 -100 -3 -46 -6 -84 -7 -84 -1 0 -3 -11 -4
-25 -1 -14 -5 -33 -9 -42 -5 -10 0 -24 12 -36 11 -11 26 -45 33 -76 11 -49 10
-58 -4 -74 -23 -25 -21 -68 4 -93 l21 -21 -28 -29 c-15 -16 -31 -29 -36 -29
-8 0 -29 -16 -86 -67 -35 -32 -46 -37 -87 -34 -30 2 -95 23 -95 31 0 4 -33 13
-72 19 -64 10 -138 7 -213 -9 -5 -1 -22 -2 -37 -1 -23 1 -32 12 -72 95 -46 94
-46 94 -37 161 7 44 6 76 -1 96 -12 36 -4 87 17 103 26 19 5 67 -41 91 -35 19
-39 24 -36 55 2 19 8 43 13 52 5 9 9 34 9 55 0 59 18 111 41 118 11 4 27 17
35 31 9 13 21 24 27 24 5 0 15 7 21 15 6 9 34 17 65 20 30 3 57 8 60 11 3 3
15 2 26 -1 11 -4 32 -9 48 -12z"/>
<path d="M6440 12610 c0 -5 5 -10 10 -10 6 0 10 5 10 10 0 6 -4 10 -10 10 -5
0 -10 -4 -10 -10z"/>
<path d="M3532 11228 c-7 -7 -12 -20 -12 -30 0 -14 8 -18 40 -18 32 0 40 4 40
18 0 22 -19 42 -40 42 -9 0 -21 -5 -28 -12z"/>
<path d="M6915 11170 l-50 -6 35 -15 c38 -17 76 -14 84 6 7 18 -10 21 -69 15z"/>
<path d="M6820 11120 c-8 -5 -49 -10 -90 -10 -41 0 -91 -4 -110 -10 -19 -5
-75 -14 -125 -21 -166 -21 -194 -25 -199 -30 -8 -7 -8 -59 0 -95 5 -27 2 -32
-24 -43 -17 -7 -38 -21 -47 -30 -19 -22 -10 -55 14 -45 9 4 42 9 74 10 75 4
187 45 237 89 15 13 125 52 206 74 60 16 126 67 122 94 -3 24 -34 33 -58 17z"/>
<path d="M5886 10502 c-38 -19 -77 -62 -69 -75 3 -6 8 -36 9 -66 4 -78 29
-220 42 -233 6 -6 30 -11 53 -12 42 -1 44 0 49 34 7 38 23 72 33 71 21 -3 25
3 25 44 1 32 -3 48 -13 52 -22 8 -18 23 5 23 41 0 48 20 18 52 -16 17 -28 38
-28 49 0 10 -9 23 -20 29 -11 6 -19 16 -17 22 4 19 -55 25 -87 10z"/>
<path d="M7238 10193 c6 -2 18 -2 25 0 6 3 1 5 -13 5 -14 0 -19 -2 -12 -5z"/>
<path d="M7950 9911 c0 -6 8 -16 18 -23 11 -7 21 -20 25 -28 3 -9 6 -3 6 13 1
17 -3 26 -9 22 -6 -3 -13 1 -16 9 -7 17 -24 22 -24 7z"/>
<path d="M8020 9709 c0 -5 5 -7 10 -4 6 3 10 8 10 11 0 2 -4 4 -10 4 -5 0 -10
-5 -10 -11z"/>
<path d="M6003 9700 c-17 -7 -23 -18 -23 -39 0 -17 -9 -45 -19 -62 -17 -28
-18 -35 -6 -58 9 -19 10 -32 3 -45 -5 -9 -7 -20 -4 -23 3 -3 9 3 12 13 4 10
14 27 22 37 10 11 15 33 13 58 -1 23 3 47 10 55 8 10 8 14 0 14 -21 0 -11 18
15 24 14 4 24 12 22 18 -6 16 -19 18 -45 8z"/>
<path d="M4955 9247 c-27 -20 -10 -37 39 -37 50 0 72 16 51 36 -17 18 -66 18
-90 1z"/>
<path d="M6020 9250 c-8 -5 -29 -10 -46 -10 -32 0 -63 -24 -49 -38 8 -8 162
-6 213 3 65 12 24 54 -53 55 -27 0 -57 -5 -65 -10z"/>
<path d="M5836 9134 c-9 -33 1 -64 20 -64 8 0 14 -6 14 -14 0 -8 16 -24 36
-37 30 -18 38 -19 45 -8 8 14 2 52 -10 57 -36 15 -56 30 -57 42 -1 8 -2 23 -3
33 -2 28 -38 21 -45 -9z"/>
<path d="M6025 9129 c-30 -18 -30 -18 -9 -33 27 -20 111 -19 119 2 3 8 2 19
-2 23 -15 15 -88 20 -108 8z"/>
<path d="M4931 9121 c-11 -7 -8 -12 12 -26 35 -22 82 -17 82 10 0 16 -8 20
-40 23 -22 1 -46 -2 -54 -7z"/>
<path d="M5718 9003 c6 -2 18 -2 25 0 6 3 1 5 -13 5 -14 0 -19 -2 -12 -5z"/>
<path d="M5005 8450 c-11 -4 -57 -13 -103 -19 -47 -7 -104 -23 -132 -37 -44
-22 -60 -24 -151 -22 -90 3 -103 1 -113 -16 -8 -14 -8 -20 2 -23 7 -3 33 -22
57 -43 24 -21 62 -42 87 -48 24 -6 55 -23 68 -37 13 -14 31 -25 41 -25 10 0
30 -11 46 -23 36 -30 98 -45 89 -21 -3 9 -6 18 -6 20 0 3 -5 2 -11 -2 -7 -4
-10 -1 -7 7 6 17 48 25 48 9 0 -6 4 -9 9 -6 4 3 17 -1 27 -9 29 -22 64 -19 64
6 0 14 6 19 18 18 9 -2 33 11 52 29 30 28 42 32 90 33 30 1 65 0 76 0 33 -3
55 25 44 53 -10 27 -5 36 21 36 9 0 19 7 23 15 4 10 -1 15 -14 15 -11 0 -20
-4 -20 -8 0 -4 -14 -13 -31 -19 -26 -10 -35 -9 -55 5 -23 18 -70 91 -66 105 1
4 -15 8 -35 9 -21 1 -52 2 -68 3 -17 1 -39 -1 -50 -5z"/>
<path d="M5667 8378 c-16 -38 -51 -73 -65 -64 -12 7 -54 -42 -47 -54 9 -14 84
-12 130 4 44 15 61 46 26 46 -27 0 -27 16 -1 23 24 6 26 39 4 61 -23 23 -32
20 -47 -16z m28 1 c-4 -6 1 -16 11 -24 18 -13 18 -14 -1 -11 -21 3 -35 46 -15
46 6 0 8 -5 5 -11z"/>
<path d="M6130 8403 c-19 -2 -44 -8 -55 -13 -19 -8 -145 -21 -207 -21 -17 0
-29 -6 -31 -17 -7 -24 -2 -91 7 -99 6 -7 132 -15 204 -14 17 1 32 -4 32 -10 0
-13 68 -42 80 -34 5 3 33 3 61 -1 48 -6 50 -8 33 -21 -10 -8 -19 -17 -20 -21
0 -4 -6 -20 -13 -36 -17 -43 -9 -53 53 -60 76 -10 186 13 186 38 0 6 13 23 30
36 28 24 44 80 18 64 -7 -4 -8 -3 -4 4 4 7 12 12 17 12 19 0 89 63 89 80 0 9
-12 27 -26 41 -21 20 -40 25 -107 31 -45 4 -122 14 -172 22 -133 23 -137 23
-175 19z m208 -210 c-10 -2 -28 -2 -40 0 -13 2 -5 4 17 4 22 1 32 -1 23 -4z"/>
<path d="M4961 8084 c0 -11 3 -14 6 -6 3 7 2 16 -1 19 -3 4 -6 -2 -5 -13z"/>
<path d="M5400 7841 c-25 -4 -62 -14 -82 -24 -21 -9 -58 -17 -84 -17 l-46 0 7
-36 c9 -52 33 -84 67 -91 20 -4 33 -15 42 -38 l14 -32 95 -5 c89 -5 175 6 193
25 4 4 22 7 40 7 18 0 34 5 36 12 6 17 78 21 78 4 0 -21 34 -46 63 -46 29 0
38 10 42 48 1 14 8 28 13 30 31 10 58 42 57 68 -2 27 -15 36 -59 35 -11 0 -22
11 -29 30 -6 16 -18 29 -27 29 -8 1 -32 3 -52 6 -24 4 -38 2 -38 -5 0 -6 -13
-11 -28 -11 -15 0 -33 -5 -38 -10 -13 -13 -44 -13 -146 -4 -76 6 -100 18 -55
27 35 7 -9 5 -63 -2z"/>
<path d="M3728 4544 c-19 -19 -7 -54 23 -70 55 -28 99 16 60 59 -11 11 -75 20
-83 11z"/>
<path d="M3840 4156 c0 -8 7 -16 15 -20 9 -3 15 0 15 8 0 8 -7 16 -15 20 -9 3
-15 0 -15 -8z"/>
<path d="M4760 2419 c0 -11 4 -18 10 -14 5 3 7 12 3 20 -7 21 -13 19 -13 -6z"/>
<path d="M35 13718 c-2 -7 -10 -200 -18 -428 -13 -374 -24 -1771 -14 -1760 3
3 8 210 11 460 4 250 9 543 11 650 3 107 7 301 10 430 3 129 8 331 11 448 6
187 3 242 -11 200z"/>
<path d="M1 11414 c0 -11 3 -14 6 -6 3 7 2 16 -1 19 -3 4 -6 -2 -5 -13z"/>
<path d="M2530 9786 c0 -9 5 -16 10 -16 6 0 10 4 10 9 0 6 -4 13 -10 16 -5 3
-10 -1 -10 -9z"/>
<path d="M2820 8720 c0 -5 5 -10 10 -10 6 0 10 5 10 10 0 6 -4 10 -10 10 -5 0
-10 -4 -10 -10z"/>
<path d="M8746 6752 c-16 -30 -8 -94 13 -115 6 -6 11 -19 11 -29 0 -19 103
-127 208 -218 34 -30 62 -60 62 -68 0 -7 18 -44 40 -81 22 -37 40 -73 40 -79
0 -7 10 -32 21 -55 16 -30 21 -58 20 -96 -1 -46 -7 -59 -39 -96 -41 -48 -62
-45 -62 8 0 61 -70 126 -87 81 -8 -20 17 -96 37 -111 10 -9 11 -12 2 -13 -8 0
-10 -8 -6 -25 5 -19 2 -25 -10 -25 -10 0 -16 9 -16 25 0 14 -4 25 -9 25 -15 0
-22 -32 -10 -46 6 -7 8 -17 5 -22 -2 -4 6 -21 20 -37 13 -15 24 -34 24 -42 0
-7 8 -13 19 -13 12 0 21 -9 24 -27 4 -16 11 -53 18 -83 6 -30 24 -93 41 -140
16 -47 34 -100 39 -117 6 -18 14 -33 19 -33 6 0 10 -28 10 -63 0 -35 5 -68 11
-74 6 -6 13 -48 16 -94 5 -72 10 -86 29 -102 13 -10 26 -34 30 -53 5 -30 2
-39 -22 -64 -16 -16 -35 -30 -42 -30 -21 0 -76 -32 -90 -52 -13 -17 -15 -17
-47 14 -19 17 -32 35 -29 39 7 11 -56 53 -66 43 -4 -5 -4 -31 0 -59 5 -27 9
-78 9 -113 1 -57 3 -63 26 -72 20 -8 25 -16 25 -44 0 -27 4 -34 15 -30 9 4 16
-3 21 -20 3 -14 10 -26 14 -26 15 0 18 41 5 83 -25 84 8 148 58 111 25 -19 28
-30 44 -158 4 -37 14 -57 43 -88 24 -26 40 -37 44 -29 12 19 36 12 79 -21 31
-25 48 -31 76 -29 25 1 45 -4 63 -18 29 -23 38 -26 38 -11 0 6 7 22 16 35 20
31 39 23 67 -28 12 -22 30 -54 39 -71 10 -17 22 -48 28 -70 11 -36 9 -40 -16
-67 -29 -30 -53 -36 -82 -20 -9 5 -39 10 -67 12 -44 4 -50 2 -50 -15 0 -14 12
-23 47 -33 26 -7 54 -23 62 -35 26 -36 61 -33 131 12 36 22 69 40 75 40 15 0
40 63 40 100 0 42 -26 89 -55 100 -17 6 -25 17 -25 33 0 13 -9 32 -19 41 -27
24 -37 74 -20 92 8 7 30 15 50 17 20 2 49 13 64 26 18 13 35 19 44 15 28 -12
63 -9 71 6 4 8 13 26 21 40 8 14 16 61 19 104 4 56 9 81 19 84 9 3 12 0 8 -10
-7 -20 12 -98 28 -118 7 -8 15 -24 18 -35 4 -16 5 -17 6 -3 1 20 31 58 44 58
5 0 4 -7 -3 -15 -9 -11 -8 -19 4 -37 9 -12 16 -29 16 -37 0 -8 14 -30 31 -47
17 -18 37 -43 43 -56 6 -12 19 -24 29 -26 24 -5 51 24 42 46 -4 9 -11 42 -16
72 -6 30 -13 68 -15 84 -11 61 -77 116 -138 116 -15 0 -30 8 -36 19 -5 11 -23
28 -40 37 -16 10 -27 21 -25 25 7 10 -35 101 -58 127 -11 12 -30 22 -42 22
-12 0 -30 8 -41 18 -28 26 -166 22 -252 -8 -42 -15 -67 -18 -78 -12 -9 5 -26
7 -36 4 -18 -4 -20 -13 -16 -106 3 -88 1 -101 -14 -104 -23 -4 -48 46 -48 96
0 21 -6 44 -12 50 -8 8 -11 36 -10 77 2 36 -1 65 -6 65 -5 0 -10 28 -11 62 -1
34 -9 77 -16 96 -13 30 -13 36 3 58 9 13 22 24 29 24 14 0 33 52 34 94 0 17 6
46 13 65 l12 33 29 -37 c17 -21 36 -44 44 -52 8 -8 18 -35 21 -60 6 -35 3 -49
-9 -61 -48 -48 -73 -95 -77 -145 -6 -67 6 -89 35 -63 12 11 21 24 21 31 0 24
41 55 74 55 19 0 39 7 46 15 7 8 21 15 31 15 10 0 30 16 45 36 22 29 25 37 14
44 -19 12 -40 122 -31 157 4 15 3 40 -2 54 -8 20 -6 31 9 52 28 39 66 35 109
-9 19 -19 40 -32 45 -29 15 9 72 -15 88 -37 7 -10 24 -18 37 -18 13 0 27 -4
30 -10 10 -16 81 -12 125 7 43 19 46 28 43 139 -3 85 -75 155 -89 85 -4 -19
-13 -31 -23 -31 -14 0 -14 -2 -1 -10 12 -8 12 -10 -3 -16 -19 -7 -57 20 -57
41 0 17 -72 73 -104 81 -18 4 -34 20 -48 48 -11 22 -31 56 -45 74 -13 18 -27
48 -30 67 -3 19 -10 35 -14 35 -5 0 -9 6 -9 13 0 20 -39 89 -68 120 -17 18
-32 25 -44 21 -12 -4 -46 12 -99 46 -75 48 -83 51 -137 48 -40 -2 -56 -7 -54
-16 1 -7 8 -45 14 -85 7 -39 15 -74 19 -77 19 -15 39 -75 39 -117 0 -57 -23
-91 -64 -95 l-29 -3 -3 75 c-2 41 -7 95 -13 120 -10 47 -70 196 -115 287 -14
29 -26 56 -26 60 -1 8 -48 73 -135 184 -102 131 -207 229 -246 229 -10 0 -25
-13 -33 -28z m836 -711 c26 3 39 -1 33 -11 -4 -6 -10 -8 -15 -5 -5 3 -11 1
-15 -5 -10 -16 -42 -12 -49 6 -9 23 3 37 19 24 8 -6 19 -10 27 -9z m-507 -254
c0 -39 -19 -38 -23 2 -3 24 0 32 10 29 7 -3 13 -17 13 -31z"/>
<path d="M9420 6419 c0 -17 53 -67 105 -99 22 -13 47 -32 57 -42 10 -10 32
-21 49 -25 17 -3 33 -12 36 -20 6 -15 74 -53 96 -53 8 0 20 -7 27 -15 6 -7 31
-17 56 -21 53 -8 174 -70 174 -89 0 -8 11 -17 25 -20 14 -3 37 -7 51 -10 17
-4 30 -17 40 -41 8 -19 22 -37 32 -40 9 -3 26 -10 37 -16 11 -6 43 -22 70 -36
114 -55 152 -77 191 -113 39 -35 40 -38 20 -43 -11 -3 -37 -6 -57 -6 -68 0
-72 -10 -67 -158 4 -127 5 -132 32 -159 23 -23 39 -28 109 -35 146 -13 211
-24 249 -41 44 -20 99 -22 116 -5 7 7 12 26 12 43 0 19 3 25 8 17 5 -7 25 -15
44 -19 30 -4 38 -2 47 15 9 17 8 23 -6 31 -17 10 -16 10 2 11 14 0 24 -10 31
-29 9 -22 23 -32 63 -46 28 -9 51 -21 51 -26 0 -5 7 -9 15 -9 12 0 15 17 15
94 l0 93 -47 44 c-26 24 -69 65 -97 92 -27 26 -75 59 -105 73 -31 14 -72 34
-91 44 -19 10 -80 34 -135 52 -56 19 -122 46 -147 61 -26 15 -55 27 -65 28
-10 0 -30 8 -45 17 -72 46 -137 80 -173 93 -22 7 -52 21 -67 31 -14 10 -29 18
-32 18 -10 0 -108 68 -146 102 -53 47 -192 121 -335 180 -27 11 -77 33 -110
49 -75 35 -135 47 -135 28z m1595 -948 c3 -5 1 -12 -5 -16 -14 -9 -52 4 -45
16 8 12 42 12 50 0z m93 -3 c19 -19 14 -28 -15 -28 -35 0 -58 14 -49 29 9 15
49 14 64 -1z"/>
<path d="M7680 5915 c0 -15 4 -24 10 -20 6 3 10 12 10 20 0 8 -4 17 -10 20 -6
4 -10 -5 -10 -20z"/>
<path d="M5004 5655 c-24 -27 -21 -35 11 -35 12 0 33 -8 46 -17 42 -31 68 -43
94 -43 20 0 25 5 25 25 0 18 -5 25 -20 25 -11 0 -23 6 -26 13 -2 7 -16 14 -31
15 -15 1 -36 11 -48 22 -26 25 -25 25 -51 -5z"/>
<path d="M5183 5527 c5 -17 77 -20 77 -3 0 9 -14 14 -41 14 -27 1 -39 -3 -36
-11z"/>
<path d="M9771 5351 c-16 -10 -6 -31 15 -31 8 0 14 -4 14 -8 0 -4 9 -8 20 -8
33 0 23 50 -10 54 -14 1 -31 -2 -39 -7z"/>
<path d="M10626 5121 c-3 -5 -15 -7 -26 -4 -28 7 -25 -12 6 -36 26 -21 39 -19
87 9 l27 17 -39 11 c-46 14 -48 14 -55 3z"/>
<path d="M10745 5094 c18 -13 35 -11 35 5 0 5 -12 9 -27 9 -25 0 -25 -1 -8
-14z"/>
<path d="M8415 4990 c3 -5 8 -10 11 -10 2 0 4 5 4 10 0 6 -5 10 -11 10 -5 0
-7 -4 -4 -10z"/>
<path d="M10626 4821 c-3 -5 -18 -12 -33 -15 -66 -16 -114 -48 -135 -90 -19
-36 -21 -55 -19 -165 1 -68 7 -135 12 -150 17 -44 49 -71 86 -71 19 0 50 -7
70 -15 41 -17 89 -20 98 -5 4 7 24 8 51 4 38 -5 50 -2 84 20 22 14 49 27 60
29 11 2 39 23 62 46 l41 44 -10 71 c-8 53 -7 79 2 101 11 28 9 33 -29 80 -47
58 -52 62 -126 92 -44 19 -66 22 -106 17 -33 -4 -54 -2 -58 5 -9 13 -43 15
-50 2z"/>
<path d="M7718 4762 c-8 -9 -25 -34 -38 -55 -19 -32 -21 -43 -11 -63 17 -39
46 -30 76 23 22 41 24 51 14 75 -15 37 -23 41 -41 20z"/>
<path d="M7811 4300 c-41 -21 -79 -44 -85 -50 -5 -5 -17 -10 -25 -10 -14 0
-100 -50 -131 -77 -84 -70 -99 -87 -97 -104 2 -10 6 -22 10 -25 4 -4 7 -20 7
-35 0 -22 -23 -55 -100 -140 -124 -138 -146 -182 -170 -341 -13 -92 -2 -143
42 -184 21 -21 39 -28 73 -29 32 -2 53 -9 70 -25 22 -21 26 -22 47 -8 34 23
85 12 93 -19 7 -29 29 -26 33 5 2 12 7 22 11 22 4 0 13 11 19 25 6 13 33 35
59 49 56 28 113 111 113 164 0 18 9 63 19 102 11 38 17 78 14 89 -3 13 0 23
11 27 14 5 14 8 1 27 -8 12 -15 29 -15 39 0 23 -37 61 -51 52 -17 -10 -49 27
-49 57 0 17 12 42 30 62 17 19 30 45 30 58 0 45 12 69 37 75 43 11 72 47 87
110 7 32 19 71 24 85 21 52 -8 52 -107 -1z"/>
<path d="M9575 3930 c-122 -23 -177 -84 -189 -210 -3 -30 -8 -76 -12 -101 -6
-41 -3 -50 32 -102 23 -35 45 -57 57 -57 24 0 70 -24 101 -54 33 -29 148 -41
211 -21 22 7 52 16 67 19 44 10 71 73 73 171 1 45 6 89 12 99 19 35 -30 166
-69 187 -13 6 -36 23 -51 38 -23 21 -38 26 -85 27 -31 0 -68 3 -82 6 -14 3
-43 2 -65 -2z"/>
<path d="M10512 3731 c-30 -33 -37 -65 -23 -109 9 -27 10 -45 2 -65 -18 -46
-13 -92 10 -113 12 -10 27 -31 35 -46 8 -15 24 -30 36 -33 13 -4 35 -18 49
-32 32 -29 125 -44 253 -40 65 2 85 6 101 22 29 29 42 100 41 222 -2 132 -16
165 -71 156 -27 -4 -34 -2 -40 16 -3 12 -18 29 -31 38 -20 13 -30 14 -50 4
-18 -8 -36 -8 -64 -1 -20 5 -80 9 -131 8 -85 -3 -96 -5 -117 -27z"/>
<path d="M8080 3690 c0 -23 4 -39 9 -35 12 7 11 64 -1 71 -4 3 -8 -13 -8 -36z"/>
<path d="M9107 3622 c-13 -14 -14 -21 -5 -30 26 -26 54 -7 43 28 -8 25 -17 25
-38 2z"/>
<path d="M6955 3460 c-3 -6 1 -7 9 -4 18 7 21 14 7 14 -6 0 -13 -4 -16 -10z"/>
<path d="M9565 3300 c-13 -40 15 -78 45 -60 20 13 4 80 -20 80 -10 0 -22 -9
-25 -20z"/>
<path d="M8610 3250 c0 -5 7 -10 16 -10 8 0 12 5 9 10 -3 6 -10 10 -16 10 -5
0 -9 -4 -9 -10z"/>
<path d="M9535 3123 c-4 -21 -9 -45 -11 -54 -2 -9 3 -22 11 -29 13 -11 22 -10
51 3 41 20 48 34 37 78 -8 29 -14 34 -45 37 -36 3 -37 2 -43 -35z"/>
<path d="M8557 3096 c-3 -8 1 -17 9 -20 8 -3 14 1 14 9 0 20 -17 28 -23 11z"/>
<path d="M8606 3075 c4 -8 8 -15 10 -15 2 0 4 7 4 15 0 8 -4 15 -10 15 -5 0
-7 -7 -4 -15z"/>
<path d="M7387 3065 c-16 -8 -31 -14 -35 -13 -13 4 -74 -60 -68 -70 3 -6 29
-15 58 -21 28 -7 57 -16 64 -22 8 -6 21 -6 39 3 25 11 29 10 47 -12 29 -36 51
-16 61 55 12 82 7 90 -42 65 -52 -26 -61 -25 -61 5 0 29 -20 33 -63 10z"/>
<path d="M10690 3060 c0 -5 6 -10 14 -10 8 0 18 5 21 10 3 6 -3 10 -14 10 -12
0 -21 -4 -21 -10z"/>
<path d="M9713 3043 c-18 -6 -16 -23 1 -23 17 0 30 16 19 23 -5 2 -14 2 -20 0z"/>
<path d="M8610 2978 c0 -19 2 -20 10 -8 13 19 13 30 0 30 -5 0 -10 -10 -10
-22z"/>
<path d="M7500 2744 c0 -21 -50 -74 -70 -74 -10 0 -26 7 -34 16 -18 17 -38 14
-106 -21 -25 -13 -53 -25 -62 -28 -9 -3 -34 -33 -56 -66 -39 -60 -39 -62 -46
-186 -9 -159 2 -222 51 -276 26 -29 43 -39 65 -39 43 0 98 -29 98 -51 0 -11 5
-19 10 -19 6 0 10 9 10 20 0 11 5 20 10 20 6 0 10 -4 10 -10 0 -6 10 -5 26 2
23 11 24 13 8 18 -14 5 -11 8 14 13 19 4 32 13 32 21 0 15 55 36 93 36 30 0
77 39 77 63 0 12 12 35 26 51 32 33 33 49 24 237 -7 164 -18 189 -80 189 -34
0 -42 4 -55 30 -8 16 -15 37 -15 48 0 10 -7 19 -15 19 -8 0 -15 -6 -15 -13z"/>
<path d="M9693 2749 c-10 -10 -64 -16 -196 -20 -85 -3 -99 -14 -126 -99 -27
-88 -37 -294 -16 -342 23 -52 40 -68 72 -68 17 0 42 -9 57 -21 25 -20 29 -20
128 -7 l101 13 20 38 c19 37 26 40 84 37 28 -1 33 2 38 27 3 15 10 44 15 63
12 49 11 258 -1 298 -9 26 -23 39 -70 62 -62 32 -88 37 -106 19z"/>
<path d="M8568 2714 c-4 -3 -40 -6 -79 -5 -71 1 -74 0 -110 -35 -20 -20 -42
-33 -47 -30 -19 11 -77 -50 -95 -100 -20 -58 -22 -139 -3 -175 11 -22 11 -30
0 -50 -28 -51 -8 -113 62 -188 2 -2 10 2 19 9 13 11 19 10 34 -4 20 -18 41
-19 167 -10 76 6 85 9 119 41 28 27 39 32 50 23 8 -6 24 -10 36 -8 17 2 25 14
36 57 7 30 18 60 24 68 8 9 8 31 -1 79 -7 38 -10 92 -6 128 7 71 -6 100 -52
109 -17 4 -33 16 -40 31 -17 38 -95 79 -114 60z"/>
<path d="M10675 2707 c-16 -5 -47 -18 -68 -29 -20 -11 -53 -21 -73 -23 -69 -6
-71 -14 -70 -213 1 -165 3 -179 23 -213 17 -28 30 -36 52 -37 16 0 40 -7 53
-15 23 -15 97 -11 186 8 26 6 32 4 32 -9 0 -22 10 -20 50 14 36 32 60 38 60
18 1 -18 50 40 50 58 0 8 -5 23 -12 34 -10 16 -9 23 7 41 17 18 20 34 18 103
-1 44 -6 101 -10 126 -8 43 -10 45 -46 48 -36 3 -72 35 -61 54 11 17 -17 36
-44 32 -15 -2 -47 -1 -72 4 -26 4 -58 4 -75 -1z"/>
<path d="M5715 2588 c-17 -57 -10 -179 14 -227 13 -27 31 -24 31 5 0 22 3 25
12 16 29 -29 52 -5 49 53 -3 81 -16 137 -35 150 -25 18 -65 19 -71 3z"/>
<path d="M6833 2452 c-11 -7 -6 -102 6 -102 7 0 31 73 31 95 0 16 -17 20 -37
7z"/>
<path d="M1 1881 c-1 -74 2 -92 11 -83 14 14 13 102 -1 147 -7 24 -9 10 -10
-64z"/>
<path d="M7337 1953 c-4 -3 -7 -21 -7 -40 0 -18 -5 -33 -11 -33 -6 0 -9 -10
-7 -22 2 -17 10 -23 28 -23 17 0 25 -6 27 -20 2 -11 0 -14 -3 -7 -10 22 -42
13 -64 -18 -30 -42 -23 -65 19 -65 28 0 36 6 56 40 25 46 25 86 -3 152 -17 43
-23 49 -35 36z"/>
<path d="M7475 1841 c-3 -5 -1 -12 4 -15 5 -3 11 1 15 9 6 16 -9 21 -19 6z"/>
<path d="M7476 1773 c-11 -11 -6 -23 9 -23 8 0 15 4 15 9 0 13 -16 22 -24 14z"/>
<path d="M7332 1521 c-8 -4 -14 -23 -15 -42 -2 -25 -7 -34 -20 -34 -9 0 -59
-42 -111 -93 l-94 -92 -7 -95 c-4 -52 -4 -107 1 -122 4 -15 6 -48 5 -73 -3
-60 22 -118 54 -126 14 -3 25 -12 25 -20 0 -12 4 -15 25 -14 3 0 19 -7 36 -15
25 -13 39 -14 80 -6 28 6 79 11 115 11 58 0 67 2 71 21 4 13 11 18 21 14 8 -3
20 -1 26 4 6 5 25 11 41 14 23 3 31 10 33 28 2 13 8 29 13 35 5 6 7 71 6 145
-2 88 1 146 10 169 12 34 11 36 -22 63 -25 21 -35 37 -35 58 0 17 -5 29 -13
29 -7 0 -30 9 -52 20 -22 11 -51 20 -66 20 -49 0 -138 42 -109 52 13 4 17 50
5 54 -5 2 -16 0 -23 -5z"/>
<path d="M9503 1484 c-18 -7 -39 -24 -47 -36 -8 -13 -30 -31 -48 -41 -46 -25
-78 -83 -66 -122 4 -16 8 -64 8 -105 0 -126 5 -166 28 -190 11 -12 26 -19 32
-15 6 4 26 -5 45 -19 18 -14 38 -26 43 -26 6 0 30 16 54 36 l43 37 3 -31 c3
-32 45 -72 75 -72 25 0 95 58 110 92 15 34 17 100 3 130 -4 9 -3 41 3 70 11
53 13 94 8 198 -2 43 -6 55 -19 58 -10 2 -18 7 -18 12 0 5 -15 12 -32 15 -18
4 -38 11 -44 16 -7 6 -18 1 -29 -11 -24 -26 -71 -26 -85 0 -12 23 -23 24 -67
4z"/>
<path d="M8355 1430 c-92 -62 -114 -84 -115 -115 0 -12 -6 -27 -12 -34 -9 -8
-13 -46 -14 -109 0 -53 -3 -124 -5 -157 -4 -59 -4 -60 24 -63 19 -2 27 -9 27
-23 0 -11 7 -19 17 -19 9 0 24 -6 32 -14 31 -27 89 -36 133 -20 22 8 66 14 97
14 48 0 61 4 78 24 11 13 26 25 33 28 8 2 8 11 1 31 -10 25 -8 28 29 47 44 23
54 45 45 100 -5 27 -2 45 10 63 12 19 13 30 5 51 -5 14 -9 48 -9 75 1 26 -4
65 -11 85 -11 34 -14 37 -42 31 -20 -5 -41 -1 -64 11 -31 17 -35 17 -69 1 -42
-20 -55 -21 -55 -4 0 18 -107 16 -135 -3z"/>
<path d="M10597 1410 c-26 -9 -57 -26 -70 -37 -12 -11 -37 -28 -54 -37 -36
-18 -50 -53 -35 -83 6 -11 8 -37 5 -60 -3 -22 -1 -48 4 -57 8 -15 13 -14 42
13 32 30 51 39 51 24 0 -5 -23 -32 -50 -61 -51 -54 -61 -84 -40 -122 8 -14 16
-17 43 -10 35 7 71 -8 73 -33 1 -7 3 -16 4 -22 2 -5 3 -21 4 -35 1 -22 6 -25
41 -28 47 -3 81 -3 92 0 4 1 18 -2 31 -6 18 -6 28 -2 48 19 13 14 24 34 24 44
0 10 11 26 24 34 13 9 29 32 36 52 6 19 17 35 25 35 13 0 25 30 25 63 0 11
-12 22 -30 29 -36 12 -35 28 3 46 32 16 32 17 7 67 -14 27 -20 33 -20 20 -1
-20 -1 -20 -15 -1 -10 13 -12 23 -5 30 19 19 11 45 -15 52 -19 5 -25 13 -25
35 0 24 -4 29 -23 29 -12 0 -32 -7 -43 -15 -18 -12 -27 -12 -55 -2 -19 7 -38
17 -44 23 -7 7 -24 5 -58 -6z m-57 -134 c0 -21 -26 -38 -52 -34 l-23 3 23 23
c25 25 52 29 52 8z m130 -336 c0 -5 16 -10 36 -10 31 0 35 -2 24 -15 -9 -10
-32 -15 -76 -15 -35 0 -64 2 -64 5 0 3 6 14 12 25 13 21 68 29 68 10z"/>
<path d="M6683 1233 c-18 -9 -33 -22 -33 -29 0 -7 -8 -17 -17 -23 -12 -6 -17
-20 -15 -48 3 -49 12 -78 21 -66 9 15 51 -3 51 -23 0 -10 -6 -14 -14 -11 -10
4 -15 -6 -19 -36 -3 -23 -7 -51 -9 -62 -3 -11 0 -27 5 -36 9 -15 13 -15 44 3
36 22 38 27 24 73 -16 58 39 135 79 110 6 -4 10 -2 10 2 0 5 -9 14 -19 20 -25
16 -36 66 -20 91 10 16 10 23 0 36 -17 20 -47 19 -88 -1z"/>
<path d="M5670 1000 c0 -5 7 -10 15 -10 8 0 15 5 15 10 0 6 -7 10 -15 10 -8 0
-15 -4 -15 -10z"/>
<path d="M7442 490 c1 -18 6 -30 15 -30 8 0 13 12 13 30 0 19 -5 30 -14 30
-10 0 -14 -10 -14 -30z"/>
<path d="M7340 410 c0 -6 7 -10 15 -10 8 0 15 2 15 4 0 2 -7 6 -15 10 -8 3
-15 1 -15 -4z"/>
<path d="M8095 380 c-20 -22 -15 -36 10 -27 8 4 15 16 15 27 0 25 -2 25 -25 0z"/>
<path d="M8650 356 c-13 -26 -8 -56 10 -56 15 0 34 46 27 64 -9 23 -22 20 -37
-8z"/>
<path d="M6280 270 c0 -13 7 -20 20 -20 24 0 27 25 4 34 -23 9 -24 8 -24 -14z"/>
<path d="M5630 141 c-19 -4 -51 -16 -70 -26 -33 -17 -121 -91 -128 -107 -2 -4
98 -8 222 -8 l226 0 -12 22 c-52 92 -144 138 -238 119z"/>
<path d="M8254 116 c-33 -37 -44 -86 -20 -86 22 0 58 57 51 80 -7 23 -15 25
-31 6z"/>
<path d="M7385 89 c-27 -5 -79 -8 -115 -7 -64 3 -65 3 -68 -24 -4 -31 -30 -58
-40 -41 -11 17 -36 20 -49 7 -7 -7 -13 -15 -13 -18 0 -3 85 -6 189 -6 l189 0
5 27 c7 37 -8 73 -30 72 -10 -1 -40 -5 -68 -10z"/>
<path d="M8341 28 c-9 -25 -4 -39 7 -22 4 6 15 13 25 17 10 4 15 11 12 17 -11
18 -35 11 -44 -12z"/>
<path d="M8415 22 c-15 -16 2 -21 66 -21 49 0 69 4 66 12 -4 12 -121 20 -132
9z"/>
<path d="M4485 10 c-3 -5 -1 -10 4 -10 6 0 11 5 11 10 0 6 -2 10 -4 10 -3 0
-8 -4 -11 -10z"/>
</g>
</svg>
